<svg width="2279" height="2698" viewBox="0 0 2279 2698" fill="none" xmlns="http://www.w3.org/2000/svg">
<g style="mix-blend-mode:soft-light" opacity="0.6">
<path d="M663.508 1676.24C618.011 1660.06 586.785 1644.35 562.26 1625.3C469.56 1550.59 443.48 1374.28 495.832 1176.11C522.761 1077.24 567.678 991.518 625.726 928.211C676.853 873.232 746.414 827.458 844.639 784.16C912.325 754.804 986.205 734.365 1077.14 719.839C1169.24 705.497 1237.95 707.668 1299.92 726.881C1302.73 727.781 1305.52 728.723 1308.45 729.767C1377.98 754.485 1479.6 818.254 1580.3 900.353C1682.65 983.794 1764.34 1070.7 1798.82 1132.84C1906.84 1259.85 1862.07 1330.62 1794.31 1437.75C1764.26 1485.27 1730.19 1539.13 1701.52 1608.65C1680.84 1658.83 1663.08 1703.89 1647.4 1743.64C1572.15 1934.55 1537.81 2021.69 1410.4 2086.12C1379.78 2100.7 1345.43 2101.4 1308.31 2088.21C1279.06 2077.8 1247.82 2058.69 1215.48 2031.39C1186.19 2006.48 1156.95 1977.99 1125.98 1947.82C1085.26 1908.14 1043.15 1867.11 995.069 1828.33C937.731 1782.48 870.127 1746.07 788.388 1717.01C776.256 1712.7 763.447 1708.42 750.321 1704.29C744.421 1702.43 738.564 1700.61 732.763 1698.8C708.407 1691.2 685.402 1684.03 663.508 1676.24ZM1308.84 728.686C1305.89 727.638 1303.08 726.687 1300.26 725.777C1238.05 706.492 1169.14 704.307 1076.81 718.686C985.76 733.23 911.78 753.698 843.99 783.093C745.614 826.462 675.933 872.32 624.696 927.415C566.531 990.852 521.535 1076.72 494.566 1175.75C442.101 1374.34 468.354 1551.13 561.449 1626.15C586.111 1645.31 617.468 1661.09 663.122 1677.33C685.045 1685.12 708.061 1692.3 732.433 1699.9C738.236 1701.71 744.088 1703.53 749.987 1705.39C763.096 1709.51 775.886 1713.79 788.002 1718.1C869.581 1747.1 937.045 1783.43 994.257 1829.17C1042.28 1867.91 1084.36 1908.91 1125.06 1948.57C1156.04 1978.76 1185.3 2007.27 1214.63 2032.2C1247.11 2059.62 1278.5 2078.83 1307.93 2089.29C1345.42 2102.62 1380.13 2101.9 1411.1 2087.16C1473.05 2055.83 1514.37 2018.95 1549.25 1963.83C1583.13 1910.32 1610.6 1840.6 1648.64 1744.12C1664.31 1704.37 1682.06 1659.31 1702.75 1609.14C1731.38 1539.7 1765.43 1485.88 1795.46 1438.39C1830.43 1383.1 1858.06 1339.42 1864.14 1292.43C1870.71 1241.63 1850.9 1192.24 1799.89 1132.28C1765.42 1070.12 1683.61 983.062 1581.13 899.512C1480.3 817.318 1378.51 753.458 1308.84 728.686Z" fill="#EDE9F6"/>
<path d="M1313.17 2036.6C1288.99 2028.01 1263.4 2014.15 1237.1 1995.42C1190.57 1967.46 1143.59 1931.26 1093.86 1892.93C1062.82 1869.01 1030.73 1844.27 996.748 1819.97C912.68 1760.88 827.753 1722.12 755.762 1692L751.492 1690.39C684.837 1665.4 627.269 1643.82 584.415 1606.11C500.121 1533.21 474.006 1367.2 517.884 1183.16C539.314 1084.66 576.675 1003.35 628.938 941.489C674.935 887.253 742.043 840.509 834.091 798.572C905.133 765.383 986.082 743.896 1081.57 732.887C1172.02 722.857 1242.82 730.182 1306.49 756.112L1307.94 756.625C1371.39 779.185 1465.52 838.949 1559.74 916.483C1655.75 995.496 1733.01 1078.13 1766.42 1137.54C1868.29 1257.98 1828.86 1326.42 1769.17 1430.02C1744.09 1473.56 1715.66 1522.91 1691.68 1585.31C1673.75 1631.16 1658.3 1672.57 1644.66 1709.1C1577.66 1888.6 1547.08 1970.53 1429.44 2032.66C1395.71 2050.71 1356.59 2052.04 1313.17 2036.6ZM1292.08 749.394C1232.05 728.049 1165.07 722.435 1081.3 731.724C985.664 742.751 904.583 764.273 833.425 797.516C741.217 839.523 673.983 886.369 627.877 940.73C575.505 1002.72 538.069 1084.18 516.608 1182.83C494.965 1273.61 489.809 1361.4 501.692 1436.71C513.579 1512.03 541.886 1570.89 583.551 1606.92C626.604 1644.8 684.288 1666.43 751.082 1691.47L755.326 1693.06C827.213 1723.14 912.051 1761.86 996 1820.87C1029.94 1845.14 1062.04 1869.87 1093.07 1893.79C1142.83 1932.15 1189.84 1968.38 1236.39 1996.34C1262.76 2015.13 1288.47 2029.05 1312.78 2037.69C1356.6 2053.27 1396.1 2051.92 1430.17 2033.69C1548.18 1971.36 1578.8 1889.32 1645.9 1709.56C1659.53 1673.03 1674.99 1631.62 1692.92 1585.77C1716.87 1523.45 1745.27 1474.14 1770.34 1430.63C1801.15 1377.16 1825.48 1334.93 1829.99 1289.78C1834.87 1240.97 1815.6 1193.84 1767.5 1136.98C1734.09 1077.55 1656.7 994.766 1560.56 915.649C1466.23 838.009 1371.93 778.154 1308.32 755.54L1306.9 755.037C1302.05 753.063 1297.05 751.16 1292.08 749.394Z" fill="#EDE9F6"/>
<path d="M1313.79 2010.16C1292.68 2002.65 1270.46 1991.4 1247.77 1976.72C1189.39 1947.84 1130.12 1906.65 1067.36 1863.06C1044.86 1847.42 1021.6 1831.26 997.739 1815.22C910.408 1757.7 822.849 1715.91 758.917 1685.4C697.051 1660.02 638.651 1636.07 596.119 1596.15C556.704 1560.71 529.64 1503.66 517.834 1431.14C506.008 1358.47 510.107 1273.9 529.686 1186.56C548.134 1088.97 582.307 1008.75 631.261 948.117C674.96 893.906 739.759 847.354 829.358 805.799C902.459 770.472 985.774 748.76 1084.07 739.423C1161.24 732.437 1223.74 738.628 1280.77 758.901C1290.54 762.377 1300.31 766.336 1309.81 770.675C1370.52 792.863 1460.52 850.725 1550.62 925.492C1644.02 1003 1716.59 1081.01 1749.71 1139.54C1848.41 1256.67 1811.71 1323.97 1756.14 1425.84C1733.52 1467.31 1707.89 1514.31 1686.24 1573.06C1669.73 1616.61 1655.46 1656.09 1642.87 1690.92C1580.01 1864.8 1551.32 1944.16 1438.61 2005.16C1403.1 2025.3 1361.1 2026.98 1313.79 2010.16ZM1281.15 757.814C1223.92 737.466 1161.22 731.254 1083.83 738.253C985.367 747.609 901.909 769.36 828.676 804.753C738.923 846.38 673.992 893.035 630.187 947.377C581.126 1008.14 546.883 1088.52 528.408 1186.25C508.803 1273.71 504.7 1358.42 516.549 1431.21C528.398 1504 555.604 1561.3 595.228 1596.93C637.943 1637.02 696.467 1661.02 758.426 1686.44C822.281 1716.92 909.784 1758.68 997.027 1816.14C1020.87 1832.17 1044.13 1848.33 1066.63 1863.96C1129.42 1907.59 1188.74 1948.8 1247.14 1977.69C1269.86 1992.4 1292.18 2003.7 1313.4 2011.24C1361.12 2028.21 1403.5 2026.51 1439.36 2006.18C1552.42 1944.98 1581.16 1865.5 1644.11 1691.37C1656.7 1656.54 1670.97 1617.07 1687.47 1573.52C1709.1 1514.83 1734.72 1467.87 1757.32 1426.43C1785.99 1373.85 1808.65 1332.32 1812.36 1288.09C1816.39 1240.27 1797.39 1194.28 1750.8 1138.99C1717.66 1080.42 1644.97 1002.27 1551.45 924.658C1461.24 849.802 1371.07 791.84 1310.26 769.617C1300.78 765.288 1290.97 761.305 1281.15 757.814Z" fill="#EDE9F6"/>
<path d="M1313.05 1985.28C1295.44 1979.02 1277.05 1970.34 1258.36 1959.48C1185.04 1930.24 1110.22 1882.71 1031.03 1832.39C1020.27 1825.55 1009.42 1818.66 998.456 1811.74C931.341 1770.35 866.978 1736.13 810.193 1705.93C793.11 1696.85 776.976 1688.27 761.588 1679.93C697.99 1651.37 646.268 1626.43 607.179 1587.22C569.752 1552.13 543.759 1496.54 531.997 1426.45C520.209 1356.19 523.267 1274.57 540.848 1190.43C556.326 1093.6 587.358 1014.35 633.093 954.859C674.519 900.608 737.082 854.176 824.358 812.921C898.548 775.887 986.759 753.28 1086.56 745.709C1157.79 740.624 1216.13 747.203 1270.15 766.409C1284.76 771.603 1299.29 777.862 1313.33 784.997C1371.55 807.297 1457.34 863.442 1542.88 935.223C1631.85 1009.88 1701.38 1085.16 1733.62 1141.76C1829.26 1255.76 1795.25 1322.06 1743.76 1422.42C1723.55 1461.83 1700.64 1506.49 1681.25 1561.63C1666.17 1602.87 1653.08 1640.4 1641.53 1673.51C1582.71 1842.15 1555.86 1919.11 1447.92 1979.13C1410.37 2001.69 1365 2003.75 1313.05 1985.28ZM1270.53 765.32C1216.31 746.043 1157.79 739.443 1086.34 744.543C986.368 752.121 897.99 774.782 823.667 811.88C736.234 853.207 673.536 899.742 632.002 954.141C586.167 1013.76 555.064 1093.17 539.565 1190.14C521.962 1274.39 518.901 1356.14 530.714 1426.52C542.519 1496.88 568.643 1552.71 606.263 1587.97C645.508 1627.34 697.351 1652.35 761.04 1680.95C776.381 1689.26 792.517 1697.84 809.604 1706.93C866.37 1737.11 930.71 1771.33 997.78 1812.68C1008.73 1819.6 1019.58 1826.49 1030.34 1833.32C1109.6 1883.68 1184.47 1931.25 1257.83 1960.49C1276.48 1971.36 1294.97 1980.08 1312.67 1986.37C1365.03 2004.99 1410.79 2002.89 1448.69 1980.14C1556.98 1919.93 1583.86 1842.84 1642.77 1673.95C1654.32 1640.84 1667.41 1603.31 1682.49 1562.08C1701.86 1506.99 1724.75 1462.36 1744.95 1422.99C1771.52 1371.19 1792.51 1330.28 1795.43 1286.87C1798.58 1239.94 1779.86 1195.01 1734.7 1141.2C1702.45 1084.56 1632.82 1009.16 1543.73 934.4C1458.06 862.52 1372.12 806.282 1313.82 783.954C1299.79 776.818 1285.2 770.536 1270.53 765.32Z" fill="#EDE9F6"/>
<path d="M1247.35 1933.35C1169.1 1905.53 1088.96 1859.63 999.827 1806.92C963.171 1785.81 928.199 1766.32 894.38 1747.48C846.991 1721.07 802.231 1696.13 764.642 1673.13C707.53 1645.04 657.151 1618.43 618.451 1576.96C582.953 1542.24 557.968 1488.19 546.179 1420.62C534.355 1352.87 536.306 1274.35 551.816 1193.55C564.21 1097.65 592.052 1019.53 634.571 961.334C673.669 907.171 733.991 860.999 818.983 820.183C895.286 781.071 986.051 758.299 1088.77 752.485C1153.62 749.108 1209.57 756.149 1259.8 774.009C1279.14 780.886 1298.3 789.614 1316.76 799.953C1429.7 845.374 1648.68 1023.95 1717.99 1144.39C1810.77 1255.23 1779.52 1320.45 1732.23 1419.18C1714.4 1456.37 1694.21 1498.53 1677.1 1549.9C1663.48 1588.63 1651.62 1624.06 1641.15 1655.32C1586.48 1818.54 1561.54 1893.03 1458.29 1951.89C1418.46 1977.15 1369.13 1979.58 1311.65 1959.15C1298.1 1954.33 1284.06 1948.19 1269.91 1940.89C1262.46 1938.56 1254.91 1936.04 1247.35 1933.35ZM1260.19 772.922C1209.76 754.995 1153.63 747.93 1088.58 751.319C985.67 757.139 894.727 779.961 818.281 819.147C733.126 860.039 672.667 906.32 633.465 960.635C590.84 1018.97 562.938 1097.25 550.529 1193.29C534.999 1274.18 533.047 1352.82 544.892 1420.7C556.725 1488.52 581.836 1542.81 617.506 1577.69C656.352 1619.31 706.852 1645.99 764.036 1674.12C801.591 1697.09 846.367 1722.04 893.764 1748.46C927.584 1767.3 962.546 1786.79 999.185 1807.89C1088.38 1860.63 1168.59 1906.57 1246.97 1934.43C1254.54 1937.13 1262.11 1939.65 1269.46 1941.94C1283.55 1949.22 1297.66 1955.39 1311.26 1960.23C1369.18 1980.82 1418.91 1978.35 1459.08 1952.89C1509.09 1924.38 1542.08 1891.35 1569.39 1842.48C1595.53 1795.7 1615.19 1737 1642.4 1655.74C1652.87 1624.49 1664.73 1589.06 1678.34 1550.33C1695.44 1499.01 1715.62 1456.89 1733.43 1419.72C1757.83 1368.76 1777.12 1328.52 1779.18 1285.99C1781.41 1240 1762.88 1196.16 1719.07 1143.84C1687.64 1089.2 1620.95 1016.6 1536.17 944.734C1454.95 875.892 1373.13 821.386 1317.29 798.927C1298.85 788.593 1279.61 779.828 1260.19 772.922Z" fill="#EDE9F6"/>
<path d="M1209.1 1902.17C1135.67 1876.07 1062.36 1837.44 1000.34 1803.1C916.819 1758.17 830.025 1710.7 767.255 1667.41C707.734 1635.24 663.97 1607.38 629.547 1567.81C560.984 1497.49 535.517 1355.57 563.061 1197.41C572.414 1102.28 597.101 1025.17 636.443 968.188C673.188 914.01 731.239 867.992 813.918 827.477C891.171 786.738 986.995 763.052 1091.04 758.966C1150.86 756.882 1202.84 764.012 1249.95 780.76C1274.11 789.35 1297 800.369 1319.92 814.442C1373.18 836.999 1450.59 889.663 1527.09 955.376C1607.28 1024.25 1670.77 1093.94 1701.28 1146.59C1791.03 1254.35 1762.56 1318.67 1719.46 1416.03C1703.97 1450.99 1686.42 1490.62 1671.52 1538.23C1659.38 1574.4 1648.73 1607.68 1639.35 1637.05C1590.28 1790.47 1565.66 1867.48 1467.12 1925.4C1425.33 1953.45 1369.92 1956.41 1306.86 1933.99C1298.12 1930.88 1289.13 1927.26 1280.15 1923.2C1257.44 1917.94 1233.59 1910.88 1209.1 1902.17ZM1250.33 779.674C1203.04 762.862 1150.89 755.706 1090.87 757.793C986.627 761.888 890.609 785.629 813.207 826.448C730.364 867.038 672.167 913.186 635.321 967.507C595.881 1024.64 571.134 1101.91 561.769 1197.17C534.173 1355.64 559.771 1497.94 628.576 1568.51C666.851 1612.51 717.744 1641.96 766.59 1668.35C829.357 1711.65 916.186 1759.15 999.741 1804.09C1061.81 1838.45 1135.18 1877.11 1208.72 1903.26C1233.25 1911.98 1257.17 1919.06 1279.79 1924.29C1288.67 1928.31 1297.69 1931.95 1306.48 1935.08C1369.98 1957.66 1425.81 1954.65 1467.93 1926.38C1566.79 1868.26 1591.46 1791.13 1640.6 1637.46C1649.99 1608.1 1660.63 1574.82 1672.77 1538.64C1687.66 1491.09 1705.2 1451.48 1720.67 1416.54C1742.91 1366.29 1760.49 1326.6 1761.72 1284.85C1763.04 1239.72 1744.74 1196.91 1702.36 1146.02C1671.84 1093.35 1608.25 1023.53 1527.95 954.56C1451.33 888.759 1373.78 835.999 1320.49 813.44C1297.58 799.363 1274.59 788.301 1250.33 779.674Z" fill="#EDE9F6"/>
<path d="M1166.35 1872.62C1116.98 1855.06 1062.91 1830.98 1001.05 1798.98C898.83 1747.73 823.211 1702.7 769.853 1661.3C716.677 1629.67 674.371 1600.07 640.507 1558.22C576.135 1488.78 550.674 1351.82 574.031 1200.76C580.291 1106.39 601.826 1030.29 638.045 974.531C672.423 920.369 728.24 874.496 808.678 834.291C908.888 780.062 1018.77 766.684 1093.31 765.01C1148.61 764.007 1196.94 771.144 1241.06 786.829C1269.51 796.945 1296.4 810.597 1323.26 828.564C1426.64 874.782 1620.62 1038.22 1685.11 1148.54C1771.98 1253.37 1746.31 1316.86 1707.44 1412.98C1694.25 1445.62 1679.29 1482.61 1666.55 1526.37C1655.9 1559.84 1646.49 1590.86 1638.2 1618.22C1593.1 1767 1570.46 1841.68 1476.51 1898.71C1431.8 1930.42 1370.81 1933.88 1300.09 1908.73C1297.02 1907.64 1293.89 1906.48 1290.78 1905.28C1251.29 1899.03 1210.64 1888.36 1166.35 1872.62ZM1241.44 785.743C1197.15 769.996 1148.65 762.831 1093.17 763.84C1018.48 765.517 908.374 778.928 807.959 833.269C727.347 873.555 671.39 919.549 636.907 973.881C600.593 1029.79 579.001 1106.05 572.735 1200.55C549.335 1351.89 574.92 1489.22 639.508 1558.89C673.472 1600.86 715.892 1630.55 769.129 1662.21C822.489 1703.62 898.188 1748.7 1000.47 1799.98C1062.39 1832.01 1116.53 1856.12 1165.97 1873.7C1210.34 1889.48 1251.08 1900.17 1290.52 1906.4C1293.47 1907.55 1296.62 1908.72 1299.7 1909.82C1370.88 1935.13 1432.3 1931.62 1477.33 1899.67C1571.6 1842.45 1594.28 1767.65 1639.46 1618.62C1647.75 1591.26 1657.15 1560.25 1667.8 1526.76C1680.53 1483.05 1695.48 1446.08 1708.67 1413.46C1747.68 1316.99 1773.44 1253.26 1686.19 1147.99C1621.64 1037.55 1427.33 873.824 1323.87 827.577C1297.01 809.613 1270.01 795.902 1241.44 785.743Z" fill="#EDE9F6"/>
<path d="M1123.74 1845.16C1085.03 1831.4 1045.33 1814.65 1002.39 1793.96C903.651 1747.92 826.42 1700.93 772.83 1654.29C730.794 1626.73 687.086 1594.8 651.682 1547.77C591.388 1479.23 565.809 1347.38 584.9 1203.62C588.001 1108.8 605.827 1035.9 639.411 980.708C671.375 926.644 724.954 881.029 803.209 841.238C883.451 796.872 987.248 772.108 1095.49 771.498C1146.75 771.419 1191.76 778.528 1233.1 793.225C1265.58 804.774 1296.2 821.126 1326.73 843.219C1425.2 889.799 1606.27 1043.97 1669.54 1150.93C1753.73 1252.84 1730.94 1315.53 1696.44 1410.43C1685.48 1440.57 1673.06 1474.74 1662.45 1514.46C1653.32 1545.04 1645.19 1573.59 1638.02 1598.8C1596.99 1742.96 1576.4 1815.32 1486.92 1871.37C1429.29 1914.5 1354.75 1903.44 1302.36 1886.57L1302.19 1886.54C1246.11 1881.45 1187.74 1867.92 1123.74 1845.16ZM1233.48 792.143C1191.98 777.387 1146.8 770.249 1095.38 770.322C986.904 770.94 882.885 795.757 802.479 840.215C724.042 880.096 670.322 925.846 638.253 980.08C604.585 1035.42 586.704 1108.49 583.603 1203.44C564.477 1347.45 590.169 1479.65 650.654 1548.4C686.155 1595.56 729.98 1627.59 772.047 1655.16C825.663 1701.83 903.006 1748.9 1001.85 1794.99C1044.84 1815.69 1084.58 1832.46 1123.35 1846.24C1187.45 1869.03 1245.91 1882.59 1302.09 1887.7C1354.8 1904.65 1429.76 1915.72 1487.77 1872.33C1577.55 1816.08 1598.18 1743.59 1639.28 1599.18C1646.45 1573.98 1654.58 1545.42 1663.72 1514.84C1674.31 1475.14 1686.72 1441 1697.68 1410.87C1732.3 1315.63 1755.18 1252.71 1670.61 1150.37C1607.29 1043.31 1425.9 888.86 1327.37 842.26C1296.85 820.158 1266.1 803.739 1233.48 792.143Z" fill="#EDE9F6"/>
<path d="M1083.87 1822.78C1057.43 1813.38 1030.15 1802.39 1002.8 1790.14C905.627 1748.06 826.939 1699.08 775.22 1648.5C723.96 1611.26 690.27 1578.37 662.492 1538.47C634.874 1505.16 614.116 1457.08 602.435 1399.39C590.685 1341.36 588.395 1274.9 595.817 1207.18C595.715 1113.06 610.489 1041.11 640.993 987.162C670.539 933.1 721.877 887.606 797.941 848.08C880.215 801.497 986.66 776.428 1097.69 777.48C1145.27 778.121 1187.21 785.119 1225.92 798.881C1262.1 811.747 1296.12 830.84 1329.92 857.253C1424.34 904.7 1591.91 1050.35 1653.06 1152.82C1734.5 1252.03 1714.6 1314.18 1684.49 1408.25C1675.67 1435.8 1665.67 1467.02 1657.1 1502.64C1649.48 1530.18 1642.91 1555.05 1636.56 1579.08C1599.54 1719.19 1580.96 1789.52 1495.89 1844.88C1439.76 1889.29 1365.25 1882.45 1312.62 1868.91L1312.46 1868.88C1241.18 1866.88 1164.27 1851.37 1083.87 1822.78ZM1226.3 797.795C1187.44 783.978 1145.34 776.95 1097.6 776.308C986.327 775.251 879.648 800.38 797.201 847.061C720.953 886.684 669.467 932.321 639.819 986.565C609.23 1040.66 594.41 1112.78 594.515 1207.02C587.089 1274.79 589.383 1341.37 601.159 1399.51C612.876 1457.38 633.723 1505.64 661.442 1539.08C689.278 1579.07 723.062 1612.05 774.378 1649.32C826.142 1699.95 904.985 1749.03 1002.31 1791.19C1029.69 1803.45 1057 1814.45 1083.48 1823.86C1164 1852.49 1241.04 1868.03 1312.45 1870.05C1365.37 1883.67 1440.28 1890.5 1496.75 1845.81C1582.12 1790.26 1600.74 1719.81 1637.83 1579.45C1644.18 1555.41 1650.74 1530.56 1658.36 1503C1666.93 1467.39 1676.93 1436.19 1685.74 1408.66C1715.96 1314.26 1735.93 1251.89 1654.14 1152.26C1626.21 1105.45 1571.65 1043.94 1504.49 983.59C1441.43 926.912 1376.42 879.334 1330.6 856.317C1296.8 829.882 1262.64 810.716 1226.3 797.795Z" fill="#EDE9F6"/>
<path d="M1051.45 1804.07C1035.78 1798.5 1019.87 1792.37 1004.16 1785.84C906.26 1746.56 828.213 1696.9 778.443 1642.24C733.188 1605.7 701.016 1570.73 674.055 1528.77C621.25 1460.92 596.305 1342 607.297 1210.6C603.9 1117.26 615.592 1046.35 643.046 993.732C670.131 939.738 719.219 894.442 793.116 855.247C877.413 806.517 986.526 781.219 1100.37 783.993C1144.66 785.241 1183.84 792.126 1220.14 805.035C1259.79 819.133 1296.94 840.991 1333.71 871.863C1422.03 919.166 1579.43 1059.13 1637.41 1155.17C1716.28 1251.8 1699.38 1313.53 1673.78 1406.95C1667.02 1431.65 1659.35 1459.65 1652.74 1490.95C1646.62 1515.19 1641.29 1537.33 1636.13 1558.74C1604.29 1690.7 1586.75 1763.4 1505.98 1818.07C1451.38 1863.69 1376.87 1861.06 1323.97 1850.83C1237.49 1853.36 1145.85 1837.64 1051.45 1804.07ZM1220.53 803.947C1184.08 790.986 1144.75 784.075 1100.3 782.824C986.205 780.04 876.848 805.399 792.369 854.233C718.279 893.53 669.038 938.98 641.858 993.167C614.322 1045.93 602.591 1117.02 605.998 1210.48C594.986 1342.08 620.022 1461.31 672.975 1529.34C699.982 1571.37 732.245 1606.45 777.541 1643.01C827.374 1697.76 905.611 1747.54 1003.71 1786.9C1019.44 1793.43 1035.38 1799.58 1051.06 1805.16C1145.64 1838.78 1237.45 1854.54 1323.97 1851.99C1376.99 1862.26 1451.93 1864.89 1506.86 1819C1587.93 1764.12 1605.5 1691.29 1637.4 1559.08C1642.56 1537.67 1647.9 1515.54 1654.01 1491.27C1660.62 1459.99 1668.28 1432.01 1675.05 1407.32C1700.73 1313.57 1717.69 1251.64 1638.48 1154.6C1611.02 1109.1 1560.79 1051.89 1497.1 993.577C1438.57 939.989 1377.75 894.148 1334.42 870.952C1297.65 840.05 1260.35 818.106 1220.53 803.947Z" fill="#EDE9F6"/>
<path d="M1024.9 1788.48C1018.19 1786.1 1011.41 1783.59 1004.75 1781.03C905.714 1744.31 828.359 1694.01 781.047 1635.58C741.683 1600.07 711.213 1562.96 685.077 1518.73C636.442 1451.75 611.497 1337.8 618.32 1213.87C611.487 1120.05 619.848 1052.19 644.632 1000.25C669.213 946.365 716.019 901.29 787.726 862.437C872.737 812.308 987.375 786.113 1102.27 790.55C1143.56 792.296 1180.21 799.04 1214.29 811.159C1257.75 826.611 1296.59 850.532 1336.52 886.444C1419.21 933.837 1564.25 1065.17 1620.53 1157.3C1696.97 1251.56 1683.14 1313.07 1662.21 1406.2C1657.37 1427.76 1651.89 1452.18 1647.13 1478.86C1642.5 1499.51 1638.38 1518.63 1634.41 1537.11C1606.72 1665.74 1591.47 1736.59 1514.89 1790.72C1461.9 1837.48 1387.43 1839.08 1334.28 1832.2C1235.34 1840.4 1128.4 1825.28 1024.9 1788.48ZM1214.68 810.072C1180.45 797.901 1143.66 791.13 1102.22 789.381C987.066 784.931 872.162 811.198 786.965 861.437C715.061 900.391 668.102 945.628 643.427 999.724C618.566 1051.82 610.173 1119.84 617.022 1213.78C610.186 1337.89 635.214 1452.12 683.974 1519.26C710.143 1563.56 740.696 1600.76 780.091 1636.29C827.493 1694.84 905.06 1745.3 1004.33 1782.1C1011 1784.66 1017.79 1787.17 1024.51 1789.56C1128.22 1826.44 1235.35 1841.58 1334.35 1833.36C1387.63 1840.28 1462.51 1838.65 1515.8 1791.63C1592.66 1737.3 1607.95 1666.31 1635.68 1537.43C1639.66 1518.95 1643.77 1499.83 1648.41 1479.16C1653.17 1452.49 1658.65 1428.07 1663.49 1406.53C1674.31 1358.39 1682.86 1320.37 1679.32 1281.6C1675.5 1239.75 1657.71 1201.24 1621.61 1156.74C1595.06 1113.27 1547.81 1058.81 1488.61 1003.46C1434.65 953.012 1378.08 908.94 1337.28 885.563C1297.32 849.608 1258.33 825.591 1214.68 810.072Z" fill="#EDE9F6"/>
<path d="M997.307 1774.56C900.893 1740.28 827.055 1690.29 783.778 1629.98C749.239 1594.91 722.257 1557.81 696.23 1509.6C651.715 1443.34 626.806 1334.2 629.563 1217.58C619.325 1124.41 624.728 1057.48 646.553 1006.86C668.34 953.739 714.18 907.509 782.816 869.426C869.826 817.066 987.191 790.544 1104.83 796.655C1143.45 798.788 1177.82 805.376 1209.91 816.784C1256.44 833.327 1297.81 859.966 1340.09 900.621C1419.86 949.804 1549.8 1070.85 1604.47 1159.36C1678.72 1251.69 1668.63 1310.17 1651.9 1407.06C1648.65 1425.96 1645.27 1445.49 1642.19 1467.2C1638.97 1483.92 1636.06 1499.67 1633.22 1514.89C1609.8 1640.98 1596.9 1710.44 1524.27 1764.36C1472.87 1812.31 1398.37 1818.2 1344.92 1814.7C1233.74 1829.53 1116.42 1816.63 1005.51 1777.42C1002.75 1776.48 1000.02 1775.53 997.307 1774.56ZM1210.3 815.693C1178.07 804.236 1143.56 797.626 1104.8 795.484C986.89 789.359 869.252 815.948 782.05 868.426C713.211 906.619 667.207 953.03 645.334 1006.37C623.438 1057.14 618.012 1124.24 628.265 1217.53C625.499 1334.29 650.486 1443.69 695.1 1510.09C721.156 1558.36 748.205 1595.55 782.768 1630.63C826.146 1691.1 900.221 1741.27 996.92 1775.65C999.639 1776.62 1002.37 1777.57 1005.13 1778.51C1116.26 1817.8 1233.81 1830.72 1345.08 1815.87C1398.65 1819.39 1473.52 1813.46 1525.19 1765.25C1598.11 1711.12 1611.03 1641.52 1634.51 1515.18C1637.33 1499.95 1640.26 1484.22 1643.48 1467.47C1646.56 1445.75 1649.94 1426.23 1653.19 1407.34C1661.55 1358.93 1668.14 1320.69 1663.49 1282.07C1658.49 1240.41 1640.62 1202.4 1605.55 1158.79C1579.91 1117.28 1535.64 1065.51 1480.92 1013.06C1431.54 965.725 1379.18 923.368 1340.88 899.766C1298.57 859.058 1257.03 832.31 1210.3 815.693Z" fill="#EDE9F6"/>
<path d="M984.762 1766.01C893.585 1733.59 825.041 1684.42 786.541 1623.81C757.361 1590.27 732.927 1552.09 707.26 1499.92C666.726 1434.29 641.756 1330 640.437 1220.88C626.471 1127.14 628.796 1063.12 647.978 1013.21C667.27 960.162 710.829 914.117 777.449 876.329C866.508 821.809 986.695 795.049 1107.22 802.91C1143.45 805.384 1175.79 811.827 1206.09 822.599C1255.6 840.203 1299.35 869.583 1343.77 915.052C1417.4 964.113 1536.11 1077.4 1588.92 1161.68C1661.5 1252.62 1654.56 1311.87 1643.07 1410.05C1641.38 1424.52 1639.62 1439.5 1638 1455.62C1636.1 1467.91 1634.31 1479.74 1632.59 1491.12C1613.8 1615.4 1603.45 1683.86 1534.48 1737.8C1484.69 1786.84 1410.09 1796.99 1356.27 1796.88C1239.65 1817.83 1118.79 1809.68 1006.61 1773.31C999.235 1771 991.885 1768.54 984.762 1766.01ZM1206.47 821.513C1176.05 810.695 1143.58 804.227 1107.2 801.742C986.401 793.866 865.932 820.686 776.673 875.333C709.842 913.233 666.118 959.476 646.742 1012.75C627.499 1062.82 625.155 1127.01 639.14 1220.87C640.458 1330.11 665.493 1434.62 706.107 1500.37C731.793 1552.59 756.284 1590.85 785.484 1624.4C824.092 1685.2 892.888 1734.56 984.377 1767.09C991.518 1769.63 998.884 1772.09 1006.28 1774.41C1118.67 1810.85 1239.78 1819.02 1356.5 1798.04C1410.44 1798.17 1485.39 1787.95 1535.43 1738.67C1604.68 1684.52 1615.05 1615.92 1633.88 1491.38C1635.6 1479.99 1637.39 1468.16 1639.3 1455.85C1640.92 1439.71 1642.67 1424.74 1644.37 1410.27C1650.11 1361.13 1654.66 1322.33 1648.76 1283.57C1642.4 1241.83 1624.28 1204.06 1590 1161.11C1537.14 1076.75 1418.23 963.273 1344.6 914.224C1300.14 868.686 1256.21 839.195 1206.47 821.513Z" fill="#EDE9F6"/>
<path d="M975.174 1758.49C887.942 1727.48 823.711 1678.71 789.425 1617.45C761.019 1580.12 740.546 1539.56 718.533 1490.13C681.402 1424.03 657.048 1327.13 651.684 1224.24C639.839 1161.61 628.932 1081.83 649.813 1019.73C666.577 966.787 707.813 920.938 772.374 883.451C862.056 827.603 988.098 799.907 1109.55 809.36C1143.58 812.101 1174.05 818.385 1202.67 828.563C1255.7 847.418 1300.26 878.561 1347.12 929.561C1415.78 979.322 1522.75 1085.29 1572.71 1163.87C1644.15 1254.22 1640.57 1315.12 1634.63 1416.04C1634.11 1424.96 1633.57 1434.18 1633.05 1443.75C1632.25 1450.91 1631.48 1457.94 1630.72 1464.8C1617.54 1584.3 1609.57 1656.43 1543.98 1710.82C1495.88 1760.88 1421.24 1775.33 1367.08 1778.64C1247.08 1805.44 1119.44 1801.96 1007.57 1768.86C996.524 1765.7 985.624 1762.21 975.174 1758.49ZM1203.06 827.477C1174.31 817.254 1143.72 810.942 1109.56 808.189C1052.61 803.762 992.841 807.468 936.692 818.919C874.47 831.606 818.924 852.979 771.592 882.456C706.801 920.078 665.403 966.124 648.561 1019.3C627.606 1081.63 638.531 1161.58 650.391 1224.27C655.756 1327.25 680.167 1424.33 717.354 1490.53C739.379 1540 759.89 1580.63 788.323 1617.98C822.724 1679.45 887.219 1728.44 974.788 1759.58C985.266 1763.3 996.197 1766.8 1007.27 1769.98C1063.05 1786.48 1122.19 1795.75 1183.06 1797.51C1244.73 1799.31 1306.75 1793.34 1367.39 1779.79C1421.66 1776.48 1496.63 1761.96 1544.95 1711.67C1610.82 1657.06 1618.8 1584.77 1632.02 1465.01C1632.77 1458.15 1633.55 1451.13 1634.35 1443.94C1634.86 1434.34 1635.41 1425.12 1635.93 1416.2C1641.89 1315.03 1645.48 1253.95 1573.79 1163.3C1523.78 1084.65 1416.65 978.513 1347.99 928.763C1301.06 877.686 1256.33 846.418 1203.06 827.477Z" fill="#EDE9F6"/>
<path d="M967.19 1751.55C882.977 1721.61 822.338 1672.93 791.834 1610.77C765.806 1571.22 748.072 1526.94 729.3 1480.05C696.019 1414.1 671.64 1322.02 662.394 1227.38C647.16 1161.39 633.914 1085.93 651.086 1026.08C665.294 973.277 704.201 927.647 766.728 890.465C858.337 832.512 987.146 804.594 1111.31 815.772C1143.33 818.739 1172.07 824.864 1199.17 834.5C1254.94 854.328 1301.44 888.106 1349.92 944.022C1413.18 994.258 1507.5 1090.96 1555.99 1165.98C1627.44 1257.28 1627.51 1321.49 1627.61 1427.88L1627.62 1431.74L1627.43 1434.84C1620.15 1555.36 1615.76 1628.11 1553.02 1683.61C1506.65 1734.6 1431.96 1753.36 1377.45 1760.13C1252.53 1793.11 1121.38 1794.5 1008.07 1764.08C994.004 1760.41 980.252 1756.2 967.19 1751.55ZM1199.56 833.413C1172.34 823.734 1143.48 817.585 1111.33 814.609C986.875 803.402 857.755 831.392 765.934 889.477C703.17 926.809 664.103 972.64 649.821 1025.7C632.585 1085.78 645.858 1161.4 661.107 1227.46C670.356 1322.16 694.781 1414.38 728.102 1480.41C746.876 1527.31 764.63 1571.64 790.687 1611.23C821.312 1673.65 882.226 1722.57 966.804 1752.64C979.906 1757.3 993.701 1761.52 1007.81 1765.2C1121.35 1795.69 1252.76 1794.29 1377.83 1761.27C1432.45 1754.49 1507.44 1735.65 1554.01 1684.44C1617.03 1628.69 1621.44 1555.78 1628.73 1435L1628.92 1431.88L1628.91 1427.98C1628.81 1321.35 1628.74 1256.99 1557.07 1165.42C1508.53 1090.32 1414.08 993.478 1350.82 943.261C1302.27 887.243 1255.59 853.332 1199.56 833.413Z" fill="#EDE9F6"/>
<path d="M961.34 1746.4C879.542 1717.32 822.039 1668.49 795.038 1605.21C776.212 1571.58 763.05 1534.01 749.112 1494.25C746.451 1486.65 743.74 1478.92 740.938 1471.05C711.233 1404.35 686.871 1317.03 674.09 1231.46C656.177 1165.95 639.727 1091.24 653.432 1033.26C665.084 980.56 701.667 935.111 762.173 898.175C855.696 838.045 987.243 809.832 1114.06 822.706C1144.24 825.839 1171.39 831.798 1197.07 840.928C1255.47 861.694 1303.75 898.106 1353.58 958.988C1410.78 1009.23 1493.12 1097.33 1539.99 1168.66C1607.85 1256.49 1616.54 1322.37 1622.78 1420.44C1622.91 1531.58 1620.07 1602.5 1562.57 1657.29C1517.96 1709.2 1443.22 1732.33 1388.37 1742.61C1258.67 1781.89 1124.06 1788.21 1009.25 1760.44C992.615 1756.51 976.497 1751.79 961.34 1746.4ZM1197.46 839.843C1171.66 830.672 1144.4 824.685 1114.1 821.537C986.974 808.64 855.118 836.922 761.373 897.195C700.617 934.285 663.868 979.954 652.156 1032.93C638.399 1091.14 654.88 1166.01 672.811 1231.58C685.596 1317.18 709.987 1404.61 739.72 1471.37C742.505 1479.19 745.214 1486.92 747.873 1494.51C761.829 1534.33 775.011 1571.94 793.855 1605.6C806.881 1636.14 827.351 1663.69 854.673 1687.44C883.433 1712.43 919.192 1732.63 960.955 1747.48C976.164 1752.89 992.333 1757.63 1009.02 1761.57C1124.07 1789.4 1258.95 1783.07 1388.8 1743.74C1443.77 1733.45 1518.79 1710.21 1563.59 1658.1C1621.36 1603.05 1624.21 1531.95 1624.08 1420.51C1617.83 1322.19 1609.12 1256.16 1541.07 1168.09C1494.16 1096.7 1411.71 1008.48 1354.53 958.265C1304.59 897.254 1256.13 860.704 1197.46 839.843Z" fill="#EDE9F6"/>
<path d="M956.103 1740.43C876.147 1712 821.305 1662.85 797.518 1598.29C783.724 1568.78 774.227 1536.4 764.171 1502.12C760.24 1488.72 756.175 1474.87 751.71 1460.67C732.224 1410.13 704.794 1329.84 684.707 1234.12C662.955 1165.82 644.261 1094.95 654.572 1039.02C663.626 986.444 697.913 941.197 756.476 904.539C852 842.27 986.426 813.835 1116.08 828.483C1144.2 831.714 1170.66 837.691 1194.73 846.248C1255.78 867.957 1305.79 907.024 1356.89 972.916C1403.71 1018.85 1475.51 1098.07 1523.98 1170.39C1587.01 1253.07 1605.71 1317.76 1618.16 1408.23C1626.45 1515.3 1621.65 1579 1572.4 1630.02C1529.53 1682.74 1454.66 1710.25 1399.38 1724.04C1264.87 1769.58 1126.63 1780.76 1010.06 1755.54C991.162 1751.53 973.009 1746.44 956.103 1740.43ZM1195.11 845.163C1170.94 836.568 1144.36 830.565 1116.14 827.322C1055.99 820.528 992.128 823.193 931.449 835.026C865.495 847.892 804.707 871.595 755.667 903.561C696.839 940.386 662.39 985.865 653.285 1038.74C642.936 1094.89 661.663 1165.91 683.444 1234.29C703.531 1330.03 730.984 1410.39 750.473 1460.93C754.922 1475.08 758.984 1488.94 762.916 1502.33C772.982 1536.65 782.491 1569.07 796.303 1598.62C807.781 1629.77 826.808 1657.72 852.845 1681.65C880.267 1706.85 914.877 1727 955.718 1741.52C972.687 1747.55 990.903 1752.65 1009.86 1756.68C1126.68 1781.96 1265.19 1770.76 1399.88 1725.16C1455.28 1711.33 1530.41 1683.72 1573.44 1630.8C1597.88 1605.49 1612.25 1575.61 1618.66 1536.78C1625.09 1497.78 1622.84 1451.95 1619.46 1408.22C1606.97 1317.52 1588.22 1252.68 1525.05 1169.82C1476.56 1097.45 1404.68 1018.14 1357.87 972.237C1306.67 906.183 1256.45 866.972 1195.11 845.163Z" fill="#EDE9F6"/>
<path d="M951.811 1735.83C873.466 1707.97 821.118 1658.41 800.426 1592.49C790.403 1566.06 783.749 1537.37 776.702 1506.99C772.548 1489.09 768.253 1470.57 763.033 1451.48C758.857 1438.57 754.436 1425.09 749.846 1411.1C732.768 1359.06 713.416 1300.08 696.062 1238.07C667.515 1159.74 649.883 1097.15 656.569 1046.15C663.023 993.724 694.98 948.68 751.555 912.278C847.517 848.81 988.09 819.399 1118.42 835.51C1144.98 838.845 1170.05 844.655 1192.91 852.785C1257.34 875.692 1307.35 916.117 1360.13 987.949C1380.56 1010.67 1451.44 1090.99 1507.59 1173.09C1563.39 1247.55 1593.9 1312.38 1612.95 1396.88C1625.74 1470.99 1630.8 1547.34 1581.58 1603.56C1549.09 1645.88 1489.75 1681.4 1409.96 1706.32C1270.88 1758.18 1129.18 1774.27 1010.94 1751.62C990.061 1747.67 970.167 1742.36 951.811 1735.83ZM1193.3 851.698C1170.33 843.532 1145.16 837.697 1118.49 834.355C1057.31 826.79 992.131 829.12 929.977 841.092C862.526 854.083 800.547 878.365 750.736 911.31C693.886 947.888 661.768 993.18 655.279 1045.92C648.561 1097.13 666.228 1159.86 694.814 1238.3C712.161 1300.3 731.52 1359.29 748.601 1411.35C753.189 1425.33 757.608 1438.8 761.779 1451.69C766.983 1470.73 771.277 1489.24 775.43 1507.14C782.488 1537.55 789.151 1566.27 799.188 1592.75C809.171 1624.56 826.833 1652.95 851.677 1677.11C877.848 1702.57 911.408 1722.69 951.426 1736.91C969.854 1743.47 989.825 1748.8 1010.78 1752.77C1129.27 1775.46 1271.23 1759.36 1410.51 1707.42C1490.5 1682.44 1550.04 1646.78 1582.65 1604.31C1604.27 1579.62 1616.89 1550.11 1621.19 1514.12C1624.91 1483.09 1622.7 1445.8 1614.23 1396.77C1595.14 1312.06 1564.56 1247.11 1508.66 1172.51C1452.49 1090.37 1381.55 1009.99 1361.15 987.315C1308.24 915.288 1258.02 874.711 1193.3 851.698Z" fill="#EDE9F6"/>
<path d="M948.038 1731.41C872.063 1704.4 820.582 1652.92 803.077 1586.47C795.98 1562.4 791.58 1536.49 786.923 1509.05C783.247 1487.4 779.449 1465.02 774.058 1441.92C759.477 1385.86 736.54 1322.71 712.263 1255.86L707.033 1241.45C679.992 1175.86 653.953 1107.26 658.136 1052.55C661.971 1000.23 691.633 955.349 746.299 919.163C844.221 853.504 987.719 823.797 1120.8 841.635C1145.95 845.041 1169.74 850.696 1191.51 858.437C1275.74 888.385 1325.8 947.929 1363.66 1002.23C1388.95 1034.64 1439.19 1100.18 1491.65 1175.21C1536.22 1235.91 1581.2 1303.34 1608.32 1385.16C1633.21 1469.24 1627.81 1530.18 1591.32 1576.91C1559.8 1620.4 1502.47 1657.94 1420.92 1688.49C1277.21 1746.74 1131.91 1767.74 1011.8 1747.63C989.104 1743.84 967.652 1738.38 948.038 1731.41ZM1191.9 857.352C1170.03 849.577 1146.13 843.898 1120.88 840.473C987.481 822.598 843.633 852.378 745.469 918.201C690.518 954.573 660.696 999.719 656.836 1052.37C652.637 1107.31 678.724 1176.05 705.805 1241.75L711.027 1256.13C735.3 1322.96 758.223 1386.08 772.787 1442.08C778.17 1465.13 781.965 1487.5 785.635 1509.13C790.302 1536.6 794.705 1562.55 801.818 1586.66C810.387 1619.2 826.789 1648.1 850.565 1672.56C875.622 1698.33 908.285 1718.5 947.651 1732.5C967.345 1739.5 988.886 1744.98 1011.67 1748.78C1132.04 1768.93 1277.6 1747.91 1421.52 1689.58C1503.28 1658.95 1560.78 1621.28 1592.42 1577.62C1629.12 1530.62 1634.57 1469.39 1609.56 1384.93C1582.39 1302.94 1537.36 1235.4 1492.73 1174.64C1440.25 1099.6 1390 1034.04 1364.73 1001.64C1326.76 947.185 1276.52 887.44 1191.9 857.352Z" fill="#EDE9F6"/>
<path d="M944.857 1727.2C869.956 1700.57 820.609 1648.46 805.906 1580.48C801.159 1558.35 798.606 1534.66 795.901 1509.58C793.22 1484.68 790.445 1458.93 785.28 1432.42C775.256 1380.97 755.203 1324.9 718.229 1244.93C686.905 1177.08 658.882 1111.81 659.959 1059.08C661.166 1006.88 688.524 962.175 741.281 926.196C841.136 858.342 987.515 828.341 1123.3 847.896C1147.12 851.35 1169.71 856.845 1190.46 864.219C1277.85 895.292 1328.86 958.69 1367.23 1016.61C1373.46 1026.04 1379.82 1035.72 1386.34 1045.64C1412.31 1085.2 1441.75 1130.03 1475.69 1177.39C1483.72 1188.61 1492.14 1200.13 1500.28 1211.27C1538.28 1263.32 1577.58 1317.14 1603.62 1373.46C1634.29 1439.86 1633.36 1502.64 1600.99 1550.22C1570.92 1594.21 1514.02 1634.73 1431.86 1670.63C1283.6 1735.28 1134.76 1761.21 1012.75 1743.64C988.398 1740.09 965.554 1734.56 944.857 1727.2ZM1190.84 863.131C1170.01 855.724 1147.32 850.207 1123.4 846.734C987.285 827.136 840.546 857.215 740.441 925.241C687.386 961.419 659.872 1006.41 658.66 1058.95C657.579 1111.91 685.653 1177.33 717.034 1245.3C753.965 1325.18 773.994 1381.17 783.997 1432.52C789.154 1458.99 791.927 1484.72 794.608 1509.6C797.313 1534.71 799.87 1558.42 804.632 1580.6C811.832 1613.89 827.03 1643.34 849.812 1668.13C873.822 1694.25 905.667 1714.49 944.471 1728.29C965.262 1735.68 988.203 1741.23 1012.65 1744.8C1073.41 1753.54 1141.05 1751.52 1213.71 1738.78C1285.79 1726.14 1359.4 1703.57 1432.51 1671.7C1514.86 1635.7 1571.93 1595.06 1602.12 1550.89C1634.69 1503 1635.66 1439.85 1604.81 1373.09C1578.73 1316.66 1539.39 1262.79 1501.35 1210.69C1493.21 1199.55 1484.8 1188.03 1476.77 1176.82C1442.83 1129.48 1413.41 1084.66 1387.44 1045.11C1380.93 1035.19 1374.56 1025.5 1368.33 1016.07C1329.83 957.956 1278.65 894.349 1190.84 863.131Z" fill="#EDE9F6"/>
<path d="M948.087 1712.97C873.516 1686.45 824.607 1636.08 810.371 1571.13C805.316 1548.13 802.77 1523.82 800.078 1498.09C797.679 1475.19 795.2 1451.5 790.757 1426.96C788.634 1415.47 785.901 1403.33 782.637 1390.9C771.813 1349.67 755.091 1304.5 728.423 1244.45C699.286 1178.55 673.278 1115.16 675.033 1063.78C676.879 1013 703.702 969.499 754.755 934.493C813.579 894.104 887.601 868.372 968.818 860.075C1020.83 854.316 1075.52 855.645 1126.98 863.911C1149.68 867.416 1171.31 872.79 1191.25 879.88C1244.84 898.932 1289.39 930.866 1331.46 980.375C1342.95 993.982 1354.44 1009.12 1366.58 1026.66C1376.2 1040.39 1385.97 1054.53 1396.31 1069.49C1419.5 1103.03 1445.77 1141.05 1474.84 1180.75C1479.61 1187.22 1484.43 1193.73 1489.29 1200.28C1522.27 1244.79 1556.39 1290.82 1582.33 1338.71C1588.5 1350.08 1594.06 1361.29 1598.85 1372.03C1627.82 1436.57 1626.46 1497.79 1595.01 1544.42C1565.6 1587.9 1510.51 1627.8 1431.29 1663.02C1378.33 1687.06 1321.34 1705.55 1261.89 1717.99C1220.52 1726.87 1178.55 1732.55 1137.14 1734.86C1095.57 1737.15 1057.03 1735.42 1015.86 1729.42C991.644 1725.88 968.839 1720.35 948.087 1712.97ZM1191.64 878.797C1171.61 871.675 1149.89 866.274 1127.1 862.758C1075.51 854.468 1020.69 853.142 968.559 858.912C887.129 867.231 812.902 893.035 753.912 933.537C702.567 968.74 675.592 1012.52 673.733 1063.64C671.969 1115.25 698.025 1178.78 727.219 1244.8C753.86 1304.8 770.562 1349.91 781.373 1391.07C784.628 1403.48 787.355 1415.59 789.475 1427.06C793.909 1451.56 796.385 1475.22 798.781 1498.1C801.477 1523.86 804.026 1548.19 809.096 1571.26C823.43 1636.66 872.655 1687.37 947.701 1714.05C968.547 1721.46 991.443 1727.02 1015.75 1730.58C1057.03 1736.59 1095.66 1738.32 1137.33 1736.03C1178.81 1733.72 1220.85 1728.03 1262.29 1719.13C1321.82 1706.67 1378.91 1688.15 1431.95 1664.08C1511.37 1628.78 1566.61 1588.74 1596.14 1545.09C1627.79 1498.15 1629.19 1436.56 1600.06 1371.67C1595.25 1360.91 1589.67 1349.67 1583.49 1338.27C1557.51 1290.3 1523.37 1244.24 1490.35 1199.68C1485.5 1193.14 1480.67 1186.63 1475.91 1180.16C1446.85 1140.47 1421.71 1104.11 1397.4 1068.94C1387.06 1053.97 1377.29 1039.83 1367.66 1026.1C1355.5 1008.53 1343.99 993.358 1332.47 979.722C1290.23 930.008 1245.48 897.941 1191.64 878.797Z" fill="#EDE9F6"/>
<path d="M950.806 1698.55C876.697 1672.2 828.306 1623.63 814.549 1561.78C809.162 1537.85 806.648 1512.95 803.986 1486.58C801.88 1465.72 799.705 1444.15 795.956 1421.67C794.024 1410.54 791.522 1398.76 788.519 1386.63C778.562 1346.4 763.101 1302.51 738.385 1244.31C711.453 1180.46 687.48 1119.01 689.911 1069.03C692.4 1019.71 718.655 977.475 767.96 943.484C825.887 903.298 898.146 879.104 976.924 873.509C1026.88 869.107 1078.38 871.533 1130.03 880.731C1151.56 884.27 1172.17 889.509 1191.26 896.299C1243.67 914.93 1287.78 945.743 1330.1 993.268C1341.57 1006.27 1353 1020.69 1365.07 1037.35C1379.41 1056.62 1394.19 1076.96 1409.83 1098.5C1429.73 1125.89 1450.3 1154.21 1473.04 1184.58L1475.48 1187.8C1512.03 1235.98 1549.81 1285.81 1577.42 1338.35C1583.24 1349.4 1588.5 1360.35 1593.03 1370.86C1620.26 1433.46 1618.48 1493.06 1587.98 1538.68C1559.27 1581.61 1506.06 1620.86 1429.84 1655.35C1378.96 1679.35 1324.03 1696.57 1261.89 1708.01C1221.76 1715.83 1181.33 1720.49 1138.29 1722.27C1099.26 1723.82 1063.42 1721.65 1018.48 1715.03C994.402 1711.5 971.635 1705.96 950.806 1698.55ZM1191.65 895.212C1172.47 888.392 1151.78 883.133 1130.16 879.576C1078.4 870.362 1026.77 867.929 976.699 872.347C897.7 877.952 825.22 902.218 767.11 942.532C717.528 976.719 691.114 1019.23 688.611 1068.88C686.171 1119.08 710.193 1180.67 737.176 1244.65C761.866 1302.78 777.309 1346.62 787.251 1386.79C790.247 1398.89 792.742 1410.65 794.67 1421.75C798.412 1444.19 800.589 1465.74 802.691 1486.58C805.353 1512.98 807.873 1537.92 813.274 1561.91C820.04 1592.33 835.226 1619.71 858.417 1643.29C882.127 1667.4 913.083 1686.36 950.42 1699.64C971.34 1707.07 994.206 1712.64 1018.38 1716.19C1063.42 1722.82 1099.34 1724.99 1138.46 1723.44C1181.57 1721.65 1222.06 1716.99 1262.26 1709.16C1324.51 1697.7 1379.54 1680.44 1430.51 1656.4C1506.92 1621.82 1560.29 1582.44 1589.11 1539.35C1619.81 1493.43 1621.63 1433.47 1594.23 1370.51C1589.69 1359.97 1584.42 1349.01 1578.58 1337.93C1550.93 1285.3 1513.11 1235.43 1476.53 1187.19L1474.1 1183.98C1451.37 1153.63 1430.8 1125.31 1410.9 1097.92C1395.26 1076.38 1380.48 1056.04 1366.14 1036.76C1354.05 1020.08 1342.59 1005.63 1331.1 992.588C1288.61 944.872 1244.3 913.929 1191.65 895.212Z" fill="#EDE9F6"/>
<path d="M953.337 1684.07C880.681 1658.23 831.488 1610.17 818.37 1552.19C812.603 1527.23 810.14 1501.68 807.531 1474.63C805.715 1455.81 803.84 1436.35 800.735 1415.95C798.98 1405.18 796.702 1393.72 793.96 1381.9C784.848 1342.63 770.608 1299.95 747.786 1243.54C722.994 1181.64 700.995 1122.07 704.092 1073.41C707.215 1025.5 732.95 984.477 780.572 951.475C837.698 911.459 908.318 888.789 984.804 885.91C1031.99 882.9 1081.88 886.482 1133.13 896.545C1153.52 900.117 1173.11 905.225 1191.37 911.717C1242.7 929.966 1286.49 959.72 1329.21 1005.35C1340.67 1017.78 1352.08 1031.5 1364.09 1047.29C1385.57 1074.4 1408.16 1104.11 1432.08 1135.55C1444.87 1152.38 1458.1 1169.78 1471.99 1187.87C1508.56 1234.62 1546.52 1284.69 1573.48 1337.66C1578.99 1348.44 1583.95 1359.12 1588.22 1369.41C1613.79 1430.16 1611.59 1488.21 1582 1532.87C1553.93 1575.29 1502.51 1613.92 1429.17 1647.7C1379.82 1671.85 1326.83 1687.86 1262.38 1698.09C1224.13 1704.73 1184.01 1708.53 1139.71 1709.71C1098.18 1710.72 1064.8 1707.15 1021.16 1700.65C997.14 1697.11 974.323 1691.53 953.337 1684.07ZM1191.75 910.632C1173.42 904.112 1153.75 898.988 1133.28 895.4C1081.93 885.317 1031.91 881.728 984.619 884.741C907.896 887.625 837.038 910.374 779.72 950.527C731.822 983.718 705.938 1025.01 702.795 1073.25C699.678 1122.12 721.719 1181.83 746.562 1243.85C769.364 1300.21 783.588 1342.83 792.687 1382.04C795.423 1393.84 797.695 1405.27 799.448 1416.02C802.542 1436.38 804.422 1455.83 806.234 1474.63C808.845 1501.72 811.313 1527.3 817.095 1552.33C830.311 1610.74 879.828 1659.15 952.951 1685.15C974.027 1692.65 996.943 1698.25 1021.06 1701.8C1064.77 1708.32 1098.22 1711.89 1139.86 1710.88C1184.23 1709.7 1224.42 1705.89 1262.72 1699.24C1327.29 1689 1380.4 1672.95 1429.85 1648.74C1503.38 1614.88 1554.95 1576.12 1583.14 1533.53C1612.91 1488.57 1615.15 1430.17 1589.43 1369.07C1585.15 1358.77 1580.18 1348.06 1574.66 1337.25C1547.64 1284.18 1509.64 1234.05 1473.03 1187.26C1459.15 1169.17 1445.92 1151.77 1433.13 1134.95C1409.21 1103.49 1386.62 1073.79 1365.13 1046.68C1353.1 1030.86 1341.66 1017.11 1330.18 1004.65C1287.3 958.836 1243.31 928.964 1191.75 910.632Z" fill="#EDE9F6"/>
<path d="M955.509 1670.48C883.45 1644.86 834.902 1598.6 822.31 1543.56C816.17 1517.48 813.82 1491.26 811.33 1463.5C809.826 1446.73 808.27 1429.38 805.798 1411.11C804.24 1400.69 802.2 1389.56 799.728 1378.02C791.519 1339.68 778.566 1298.21 757.725 1243.53C736.07 1185.97 715.243 1125.82 719.064 1078.48C722.867 1031.92 748.07 992.049 793.973 959.962C850.241 920.027 919.135 898.792 993.202 898.55C1037.44 896.848 1085.65 901.531 1136.5 912.467C1155.67 916.049 1174.18 920.988 1191.51 927.153C1241.7 944.996 1285.12 973.685 1328.16 1017.43C1339.57 1029.28 1350.92 1042.3 1362.86 1057.23C1396.45 1097.07 1432.36 1142.77 1470.37 1191.16C1504.25 1233.2 1542.41 1283.4 1568.66 1337C1573.84 1347.51 1578.48 1357.93 1582.47 1367.99C1606.29 1426.91 1603.61 1483.47 1574.93 1527.25C1547.52 1569.22 1497.93 1607.31 1427.55 1640.48C1379.47 1664.99 1328.46 1679.89 1262.13 1688.8C1225.51 1694.43 1186.88 1697.33 1140.58 1697.92C1098.1 1698.35 1066.32 1693.58 1026.07 1687.53L1023.49 1687.14C999.527 1683.61 976.659 1678 955.509 1670.48ZM1191.9 926.066C1174.49 919.875 1155.91 914.913 1136.68 911.325C1085.72 900.367 1037.4 895.673 993.063 897.379C918.741 897.615 849.595 918.932 793.118 959.018C746.947 991.288 721.591 1031.42 717.766 1078.29C713.929 1125.85 734.796 1186.15 756.496 1243.82C777.317 1298.44 790.255 1339.87 798.453 1378.14C800.916 1389.67 802.956 1400.78 804.507 1411.16C806.978 1429.39 808.531 1446.73 810.033 1463.5C812.525 1491.3 814.879 1517.56 821.037 1543.71C833.727 1599.18 882.601 1645.78 955.122 1671.57C976.364 1679.12 999.328 1684.75 1023.38 1688.3L1025.96 1688.69C1066.27 1694.74 1098.11 1699.53 1140.71 1699.1C1187.08 1698.5 1225.76 1695.6 1262.44 1689.96C1328.91 1681.03 1380.05 1666.09 1428.24 1641.52C1498.8 1608.27 1548.54 1570.04 1576.07 1527.9C1604.94 1483.84 1607.64 1426.94 1583.69 1367.68C1579.69 1357.59 1575.03 1347.13 1569.85 1336.6C1543.54 1282.89 1505.33 1232.63 1471.41 1190.54C1433.39 1142.14 1397.48 1096.43 1363.87 1056.59C1351.93 1041.64 1340.56 1028.59 1329.1 1016.7C1285.9 972.784 1242.3 943.987 1191.9 926.066Z" fill="#EDE9F6"/>
<path d="M958.264 1656.08C886.825 1630.68 838.9 1586.29 826.771 1534.28C820.192 1507.05 817.968 1480.22 815.614 1451.81C814.398 1437.11 813.142 1421.92 811.223 1405.87C809.828 1395.67 808.059 1385.19 805.821 1373.81C798.474 1336.49 786.751 1296.28 767.814 1243.44C748.227 1187.85 729.482 1129.72 733.974 1083.74C738.409 1038.65 763.056 1000.04 807.23 968.995C862.63 929.284 929.808 909.602 1001.51 912.079C1043.3 911.666 1088.55 917.336 1139.88 929.415C1157.8 932.989 1175.18 937.757 1191.57 943.583C1240.69 961.048 1283.83 988.675 1327.34 1030.53C1338.74 1041.78 1350.05 1054.09 1361.92 1068.14C1392.42 1101.92 1425.53 1141.12 1469.27 1195.26C1513.99 1248.88 1544.27 1293.9 1564.58 1336.95C1569.44 1347.15 1573.78 1357.31 1577.5 1367.13C1599.63 1424.12 1596.55 1479.05 1568.82 1521.83C1542.46 1562.66 1493.38 1601.12 1426.91 1633.07C1367.46 1664.47 1307.99 1674.13 1262.84 1679.04C1218.3 1684.9 1175.04 1685.57 1142.32 1685.51C1105.71 1685.31 1077.93 1680.94 1045.77 1675.88C1039.61 1674.91 1033.26 1673.91 1026.61 1672.9C1002.64 1669.34 979.651 1663.68 958.264 1656.08ZM1191.96 942.496C1175.5 936.645 1158.05 931.86 1140.08 928.275C1088.66 916.178 1043.29 910.497 1001.41 910.906C929.448 908.42 861.992 928.18 806.373 968.048C761.939 999.286 737.14 1038.15 732.68 1083.54C728.166 1129.74 746.952 1187.99 766.576 1243.7C785.494 1296.5 797.204 1336.66 804.54 1373.91C806.775 1385.27 808.541 1395.73 809.929 1405.91C811.844 1421.93 813.102 1437.11 814.318 1451.79C816.674 1480.25 818.897 1507.12 825.5 1534.43C837.725 1586.86 885.976 1631.6 957.878 1657.16C979.356 1664.8 1002.45 1670.48 1026.5 1674.05C1033.15 1675.06 1039.5 1676.07 1045.65 1677.03C1077.87 1682.1 1105.7 1686.49 1142.42 1686.68C1175.19 1686.74 1218.52 1686.07 1263.11 1680.21C1308.38 1675.28 1367.99 1665.59 1427.62 1634.1C1494.26 1602.08 1543.49 1563.48 1569.95 1522.48C1597.87 1479.43 1600.99 1424.15 1578.72 1366.84C1575 1356.99 1570.65 1346.8 1565.78 1336.57C1545.41 1293.43 1515.08 1248.32 1470.29 1194.62C1426.54 1140.46 1393.43 1101.25 1362.91 1067.47C1351.04 1053.4 1339.7 1041.06 1328.26 1029.78C1284.59 987.767 1241.28 960.033 1191.96 942.496Z" fill="#EDE9F6"/>
<path d="M960.459 1641.47C890.864 1616.73 842.492 1573.12 831.052 1524.82C824.018 1496.36 822.001 1468.9 819.864 1439.83C818.937 1427.21 817.974 1414.15 816.575 1400.34C815.372 1390.52 813.83 1380.36 811.865 1369.27C805.499 1333.44 794.732 1293.29 777.975 1242.92C760.507 1189.26 743.894 1133.13 749.098 1088.46C754.193 1044.78 778.292 1007.38 820.724 977.3C875.235 937.744 940.663 919.548 1009.94 924.682C1049.01 925.49 1091.36 932.057 1143.26 945.353C1159.86 948.888 1176.04 953.445 1191.39 958.902C1239.44 975.986 1282.31 1002.58 1326.31 1042.58C1337.68 1053.24 1348.94 1064.83 1360.72 1078.02C1394.09 1112.51 1429.08 1151.87 1467.72 1198.38C1509.51 1246.83 1540.52 1293.11 1559.88 1335.98C1564.4 1345.89 1568.44 1355.79 1571.88 1365.38C1592.27 1420.48 1588.74 1473.85 1561.94 1515.68C1536.24 1556.02 1489.08 1593.88 1425.55 1625.14C1368.37 1656.5 1311.24 1664.87 1262.9 1668.93C1222.15 1673.4 1181.44 1673.45 1143.52 1672.83C1110.91 1672.19 1086.94 1668.1 1059.18 1663.38C1049.76 1661.77 1040.03 1660.12 1029.29 1658.47C1005.29 1654.9 982.13 1649.18 960.459 1641.47ZM1191.77 957.814C1176.36 952.335 1160.11 947.76 1143.49 944.221C1091.5 930.9 1049.04 924.322 1009.9 923.516C940.335 918.351 874.609 936.629 819.86 976.358C777.179 1006.62 752.936 1044.26 747.804 1088.24C742.578 1133.12 759.227 1189.39 776.73 1243.16C793.468 1293.49 804.224 1333.59 810.58 1369.36C812.544 1380.43 814.082 1390.57 815.282 1400.35C816.68 1414.14 817.639 1427.19 818.567 1439.81C820.705 1468.92 822.727 1496.42 829.783 1524.97C835.686 1549.9 850.595 1573.09 874.089 1593.89C896.439 1613.68 926.173 1630.51 960.073 1642.56C981.835 1650.3 1005.09 1656.04 1029.18 1659.63C1039.91 1661.27 1049.64 1662.93 1059.05 1664.53C1086.86 1669.27 1110.89 1673.36 1143.61 1674C1181.58 1674.62 1222.34 1674.57 1263.14 1670.09C1311.61 1666.03 1368.9 1657.62 1426.27 1626.16C1489.96 1594.82 1537.27 1556.84 1563.07 1516.33C1590.06 1474.21 1593.63 1420.51 1573.11 1365.11C1569.66 1355.49 1565.61 1345.56 1561.07 1335.62C1541.67 1292.65 1510.59 1246.25 1468.74 1197.73C1430.07 1151.19 1395.06 1111.81 1361.69 1077.32C1349.9 1064.12 1338.61 1052.49 1327.2 1041.8C1283.04 1001.65 1240.01 974.967 1191.77 957.814Z" fill="#EDE9F6"/>
<path d="M962.837 1626.94C894.098 1602.5 846.527 1560.81 835.58 1515.43C828.05 1485.68 826.372 1458.93 824.426 1427.95C823.763 1417.38 823.079 1406.43 822.115 1394.86C821.1 1385.38 819.778 1375.55 818.083 1364.79C812.588 1329.96 803.103 1291.08 788.239 1242.43C772.854 1190.71 758.328 1136.57 764.242 1093.17C769.995 1050.9 793.552 1014.72 834.265 985.624C887.922 946.235 951.653 929.548 1018.57 937.369C1064.78 939.866 1111.46 951.53 1146.98 961.409C1162.18 964.88 1177.09 969.195 1191.33 974.256C1238.41 990.997 1281.14 1016.6 1325.81 1054.83C1337.17 1064.9 1348.39 1075.79 1360.1 1088.11C1395.91 1122.52 1430.84 1159.68 1466.89 1201.76C1506.71 1246.26 1537.53 1292.44 1556.01 1335.31C1560.21 1344.94 1563.94 1354.57 1567.11 1363.95C1585.81 1417.13 1581.85 1468.95 1555.96 1509.85C1524.32 1560.21 1467.27 1596.18 1425 1617.49C1369.67 1648.94 1314.75 1656.05 1263.64 1659.05C1224.82 1662.42 1187.08 1661.63 1145.31 1660.35C1115.5 1659.32 1094.24 1655.33 1069.62 1650.71C1058.13 1648.55 1046.25 1646.33 1032.44 1644.19C1008.31 1640.59 984.891 1634.78 962.837 1626.94ZM1191.71 973.175C1177.42 968.095 1162.46 963.757 1147.23 960.282C1111.67 950.391 1064.89 938.704 1018.57 936.201C951.361 928.348 887.31 945.111 833.398 984.686C792.444 1013.95 768.74 1050.37 762.951 1092.94C757.01 1136.54 771.562 1190.81 786.983 1242.65C801.835 1291.24 811.308 1330.07 816.796 1364.85C818.489 1375.6 819.806 1385.41 820.82 1394.86C821.781 1406.41 822.467 1417.35 823.129 1427.92C825.077 1458.95 826.754 1485.74 834.315 1515.59C845.356 1561.39 893.259 1603.42 962.451 1628.02C984.599 1635.9 1008.11 1641.73 1032.34 1645.35C1046.11 1647.48 1057.98 1649.71 1069.46 1651.86C1094.14 1656.49 1115.46 1660.49 1145.37 1661.52C1187.2 1662.81 1224.98 1663.59 1263.85 1660.22C1315.11 1657.2 1370.21 1650.07 1425.73 1618.51C1468.11 1597.15 1525.33 1561.06 1557.11 1510.49C1583.17 1469.32 1587.16 1417.19 1568.36 1363.69C1565.18 1354.28 1561.43 1344.62 1557.22 1334.96C1538.68 1291.98 1507.79 1245.68 1467.88 1201.08C1431.81 1158.99 1396.86 1121.79 1361.03 1087.37C1349.32 1075.04 1338.08 1064.12 1326.68 1054.02C1281.86 1015.67 1238.97 989.979 1191.71 973.175Z" fill="#EDE9F6"/>
<path d="M964.099 1613.03C896.301 1588.92 849.571 1549.17 839.102 1506.69C831.025 1475.63 829.657 1448.38 828.074 1416.84C827.642 1408.25 827.195 1399.38 826.595 1390.02C825.761 1380.9 824.659 1371.39 823.227 1360.94C818.586 1327.12 810.366 1289.5 797.361 1242.56C784.017 1192.77 771.547 1140.64 778.175 1098.5C784.576 1057.63 807.609 1022.66 846.624 994.564C899.461 955.362 961.543 940.205 1026.16 950.729C1064.87 954.255 1103.57 964.257 1149.79 978.195C1163.51 981.55 1177.04 985.59 1190.05 990.213C1236.29 1006.65 1279.05 1031.33 1324.62 1067.87C1336 1077.35 1347.19 1087.54 1358.82 1099.01C1396.52 1132.51 1431.42 1167.5 1465.54 1205.99C1504.23 1247.56 1534.04 1292.34 1551.77 1335.54C1555.65 1344.88 1559.09 1354.25 1561.99 1363.4C1579.03 1414.7 1574.66 1464.96 1549.66 1504.92C1518.84 1554.67 1464.34 1589.91 1424.04 1610.71C1373.23 1640.59 1323.26 1648.01 1263.84 1649.98C1226.77 1652.32 1190.37 1650.65 1151.84 1648.88L1146.43 1648.63C1118.67 1647.26 1099.42 1643.25 1077.14 1638.61C1064.31 1635.94 1051.04 1633.18 1034.82 1630.65C1010.45 1626.98 986.662 1621.05 964.099 1613.03ZM1190.43 989.13C1177.38 984.49 1163.8 980.434 1150.07 977.077C1103.8 963.121 1065.01 953.1 1026.24 949.568C961.291 938.993 898.864 954.225 845.754 993.63C806.505 1021.89 783.328 1057.09 776.884 1098.23C770.226 1140.58 782.724 1192.84 796.098 1242.74C809.09 1289.64 817.299 1327.21 821.935 1360.98C823.367 1371.42 824.463 1380.91 825.295 1390C825.894 1399.34 826.344 1408.21 826.772 1416.79C828.36 1448.4 829.729 1475.69 837.833 1506.85C848.403 1549.75 895.463 1589.85 963.713 1614.11C986.365 1622.17 1010.25 1628.12 1034.71 1631.8C1050.88 1634.32 1064.13 1637.08 1076.95 1639.75C1099.29 1644.4 1118.6 1648.42 1146.47 1649.81L1151.89 1650.05C1190.46 1651.82 1226.9 1653.49 1264.02 1651.14C1323.62 1649.18 1373.78 1641.72 1424.79 1611.72C1465.18 1590.87 1519.86 1555.51 1550.81 1505.56C1575.96 1465.33 1580.38 1414.76 1563.23 1363.16C1560.33 1353.99 1556.88 1344.59 1552.98 1335.21C1535.21 1291.89 1505.31 1246.97 1466.52 1205.29C1432.37 1166.78 1397.43 1131.76 1359.72 1098.24C1348.08 1086.77 1336.86 1076.55 1325.46 1067.03C1279.73 1030.38 1236.84 1005.63 1190.43 989.13Z" fill="#EDE9F6"/>
<path d="M965.568 1598.17C899.048 1574.51 853.4 1536.77 843.469 1497.19C834.871 1464.87 833.917 1437.25 832.809 1405.26C832.578 1398.6 832.339 1391.7 832.027 1384.47C831.38 1375.7 830.507 1366.53 829.35 1356.4C825.597 1323.62 818.686 1287.29 807.594 1242.05C796.352 1194.24 785.988 1144.13 793.36 1103.24C800.43 1063.77 822.909 1030.02 860.17 1002.92C912.108 963.878 972.429 950.209 1034.62 963.383C1071.98 968.282 1108.86 979.73 1153.2 994.18C1165.23 997.341 1177.17 1001.03 1188.73 1005.14C1234.13 1021.28 1276.99 1045.06 1323.61 1079.97C1334.97 1088.86 1346.11 1098.33 1357.63 1108.93C1396.76 1141.02 1431.55 1173.8 1463.99 1209.14C1501.06 1247.4 1530.55 1291.94 1547.05 1334.58C1550.61 1343.64 1553.74 1352.75 1556.35 1361.65C1571.68 1411.02 1566.85 1459.71 1542.78 1498.75C1512.8 1547.91 1460.92 1582.44 1422.69 1602.75C1373.3 1632.85 1323.51 1639.34 1263.94 1639.82C1231.1 1641.11 1198.84 1639.1 1164.67 1636.96C1159.06 1636.61 1153.4 1636.26 1147.69 1635.92C1121.51 1634.24 1103.02 1629.96 1083.45 1625.44C1069.81 1622.28 1055.7 1619.02 1037.57 1616.17C1012.91 1612.44 988.689 1606.39 965.568 1598.17ZM1189.12 1004.05C1177.52 999.923 1165.54 996.234 1153.5 993.072C1109.14 978.607 1072.19 967.139 1034.76 962.233C972.218 948.986 911.524 962.727 859.297 1001.98C821.809 1029.25 799.192 1063.22 792.071 1102.95C784.668 1144.04 795.051 1194.27 806.322 1242.2C817.405 1287.4 824.31 1323.69 828.056 1356.42C829.209 1366.53 830.084 1375.7 830.725 1384.44C831.039 1391.64 831.275 1398.53 831.506 1405.2C832.615 1437.25 833.576 1464.93 842.199 1497.36C852.237 1537.35 898.213 1575.44 965.182 1599.25C988.392 1607.5 1012.71 1613.59 1037.46 1617.33C1055.53 1620.17 1069.61 1623.42 1083.22 1626.57C1102.86 1631.11 1121.41 1635.4 1147.71 1637.08C1153.43 1637.43 1159.08 1637.78 1164.69 1638.13C1198.89 1640.27 1231.2 1642.29 1264.08 1640.99C1323.86 1640.51 1373.85 1633.99 1423.44 1603.75C1461.78 1583.39 1513.82 1548.75 1543.93 1499.39C1568.16 1460.09 1573.02 1411.1 1557.61 1361.44C1554.99 1352.51 1551.85 1343.36 1548.27 1334.28C1531.72 1291.49 1502.13 1246.8 1464.95 1208.42C1432.48 1173.05 1397.65 1140.23 1358.49 1108.12C1346.97 1097.53 1335.81 1088.03 1324.4 1079.1C1277.65 1044.09 1234.67 1020.24 1189.12 1004.05Z" fill="#EDE9F6"/>
<path d="M967.051 1583.31C900.993 1559.82 857.623 1525 848.067 1487.76C838.937 1454.26 838.487 1427.73 837.919 1394.14C837.839 1389.25 837.751 1384.21 837.639 1378.98C837.178 1370.54 836.523 1361.68 835.642 1351.9C832.764 1320.2 827.138 1285.15 817.928 1241.57C809.144 1197.76 800.449 1147.68 808.573 1108C816.307 1069.94 838.246 1037.41 873.775 1011.3C924.842 972.454 983.454 960.3 1043.28 976.144C1076.89 982.052 1111.02 994.101 1147.14 1006.86L1156.94 1010.32C1167.05 1013.18 1177.14 1016.39 1186.97 1019.89C1231.75 1035.81 1275.02 1058.81 1323.13 1092.29C1334.5 1100.58 1345.6 1109.35 1357.02 1119.09C1398 1149.92 1431.72 1179.61 1463.16 1212.56C1499.33 1248.32 1527.75 1291.42 1543.19 1333.93C1546.43 1342.7 1549.26 1351.54 1551.59 1360.23C1565.23 1407.67 1559.98 1454.79 1536.81 1492.91C1507.66 1541.47 1458.37 1575.26 1422.16 1595.05C1368.7 1628.78 1315.08 1630.75 1264.73 1629.88C1235.3 1630.31 1206.35 1627.95 1175.72 1625.45C1167.11 1624.74 1158.39 1624.03 1149.52 1623.37C1124.54 1621.4 1107.39 1617 1089.24 1612.33C1075.12 1608.71 1060.52 1604.96 1040.78 1601.83C1016.04 1598.07 990.545 1591.66 967.051 1583.31ZM1187.35 1018.8C1177.5 1015.3 1167.37 1012.07 1157.27 1009.22L1147.53 1005.78C1111.34 992.997 1077.16 980.924 1043.48 975.009C983.288 959.061 924.277 971.286 872.892 1010.38C837.153 1036.64 815.08 1069.38 807.294 1107.69C799.132 1147.56 807.841 1197.76 816.649 1241.69C825.85 1285.23 831.471 1320.25 834.34 1351.9C835.228 1361.66 835.88 1370.5 836.336 1378.91C836.451 1384.13 836.537 1389.17 836.618 1394.06C837.19 1427.72 837.638 1454.31 846.801 1487.93C856.467 1525.59 900.153 1560.75 966.665 1584.39C990.248 1592.78 1015.84 1599.21 1040.67 1602.99C1060.33 1606.1 1074.9 1609.84 1088.99 1613.46C1107.2 1618.14 1124.41 1622.56 1149.52 1624.53C1158.39 1625.2 1167.11 1625.91 1175.71 1626.61C1206.39 1629.12 1235.36 1631.48 1264.83 1631.05C1315.37 1631.92 1369.22 1629.94 1422.93 1596.05C1459.24 1576.21 1508.69 1542.29 1537.97 1493.54C1561.28 1455.17 1566.56 1407.76 1552.85 1360.04C1550.51 1351.33 1547.67 1342.45 1544.42 1333.65C1528.92 1290.98 1500.4 1247.71 1464.11 1211.83C1432.62 1178.84 1398.85 1149.09 1357.84 1118.24C1346.42 1108.52 1335.3 1099.72 1323.88 1091.4C1275.64 1057.83 1232.27 1034.77 1187.35 1018.8Z" fill="#EDE9F6"/>
<path d="M967.456 1569.09C903.22 1546.26 861.225 1513.44 852.243 1479.06C842.64 1444.51 842.745 1419.23 842.895 1384.24C842.907 1380.94 842.922 1377.57 842.929 1374.09C842.663 1365.96 842.241 1357.43 841.635 1347.99C839.666 1317.39 835.359 1283.57 828.083 1241.56C819.662 1189.51 815.698 1147.73 823.726 1113.05C832.164 1076.33 853.565 1044.96 887.342 1019.81C937.526 981.049 994.389 970.332 1051.79 988.811C1065.55 991.913 1080.29 996.32 1098.26 1002.71C1111.27 1007.33 1124.35 1012.41 1138.19 1017.78C1145.47 1020.6 1152.86 1023.46 1160.38 1026.32C1168.14 1028.68 1175.92 1031.25 1183.54 1033.95C1228.51 1049.94 1271.25 1071.67 1322.13 1104.42C1333.36 1112.02 1344.7 1120.31 1355.84 1129.06C1397.92 1157.98 1431.51 1185.54 1461.58 1215.82C1496.89 1249.24 1524.16 1290.92 1538.38 1333.2C1541.31 1341.72 1543.82 1350.32 1545.86 1358.75C1557.76 1404.3 1552.05 1449.91 1529.77 1487.2C1501.43 1535.27 1454.74 1568.4 1420.57 1587.73C1368.46 1621.83 1317.05 1622.69 1264.57 1620.49C1237.99 1620.23 1211.85 1617.57 1184.16 1614.74C1173.27 1613.63 1162 1612.48 1150.52 1611.47C1126.51 1609.25 1110.49 1604.69 1093.54 1599.86C1079.19 1595.78 1064.36 1591.56 1043.29 1588.21C1017.98 1584.35 991.765 1577.74 967.456 1569.09ZM1098.65 1001.62C1080.62 995.213 1065.82 990.789 1052.06 987.691C994.271 969.087 936.983 979.859 886.459 1018.88C852.481 1044.19 830.944 1075.76 822.454 1112.72C814.39 1147.57 818.356 1189.46 826.797 1241.63C834.069 1283.62 838.373 1317.4 840.336 1347.96C840.941 1357.38 841.366 1365.91 841.629 1374.01C841.621 1377.46 841.609 1380.84 841.594 1384.14C841.445 1419.21 841.341 1444.56 850.982 1479.25C860.071 1514.03 902.385 1547.18 967.07 1570.18C991.467 1578.86 1017.78 1585.49 1043.18 1589.36C1064.16 1592.7 1078.94 1596.91 1093.24 1600.98C1110.26 1605.82 1126.34 1610.4 1150.5 1612.64C1161.97 1613.65 1173.24 1614.8 1184.12 1615.91C1211.84 1618.74 1238.02 1621.41 1264.65 1621.66C1317.33 1623.87 1368.98 1623.01 1421.37 1588.72C1455.61 1569.34 1502.46 1536.08 1530.93 1487.82C1553.34 1450.3 1559.1 1404.4 1547.12 1358.58C1545.08 1350.12 1542.56 1341.5 1539.62 1332.95C1525.33 1290.48 1497.94 1248.62 1462.49 1215.07C1432.38 1184.74 1398.73 1157.12 1356.61 1128.18C1345.48 1119.44 1334.11 1111.13 1322.84 1103.5C1271.84 1070.68 1229.01 1048.9 1183.93 1032.87C1176.28 1030.15 1168.48 1027.58 1160.75 1025.23C1153.28 1022.39 1145.89 1019.53 1138.62 1016.71C1124.77 1011.33 1111.68 1006.26 1098.65 1001.62Z" fill="#EDE9F6"/>
<path d="M1059.56 1001.97C1066.03 1003.79 1072.65 1005.91 1079.86 1008.47C1096.56 1014.41 1113.53 1021.71 1131.5 1029.44C1141.77 1033.85 1152.4 1038.43 1163.34 1042.9C1167.98 1044.42 1172.61 1046.01 1177.18 1047.63C1222.26 1063.66 1266.63 1085.12 1321.05 1117.2C1332.33 1124.23 1343.65 1131.8 1354.67 1139.68C1398.48 1166.94 1431.06 1191.61 1460.32 1219.71C1494.96 1250.89 1521.2 1291.1 1534.22 1332.94C1536.84 1341.16 1539.06 1349.49 1540.83 1357.68C1551.24 1401.87 1545.3 1444.7 1523.61 1481.56C1496.11 1528.99 1452.01 1561.3 1419.86 1580.07C1368.99 1614.41 1319.67 1614.13 1265.09 1610.42C1240.86 1609.54 1217.02 1606.56 1191.78 1603.4C1178.94 1601.8 1165.67 1600.14 1151.99 1598.72C1128.69 1596.22 1113.6 1591.46 1097.64 1586.43C1083.22 1581.89 1068.32 1577.19 1046.04 1573.62C1019.94 1569.59 992.747 1562.7 967.418 1553.7C905.188 1531.57 864.645 1500.83 856.175 1469.35C846.072 1434.05 846.694 1410.28 847.636 1374.3L847.789 1368.43C847.705 1360.6 847.496 1352.4 847.151 1343.35C846.018 1313.59 843.059 1282.04 837.558 1241.05C831.5 1191.46 829.255 1151.54 837.988 1117.92C847.077 1082.64 867.931 1052.54 899.968 1028.45C947.938 991.016 1001.63 981.316 1055.27 1000.39C1056.7 1000.9 1058.14 1001.42 1059.56 1001.97ZM1080.25 1007.39C1073.01 1004.81 1066.36 1002.68 1059.92 1000.88C1058.54 1000.35 1057.1 999.814 1055.66 999.301C1001.54 980.061 947.399 989.819 899.078 1027.53C866.854 1051.76 845.87 1082.05 836.719 1117.56C827.945 1151.34 830.192 1191.37 836.265 1241.09C841.763 1282.05 844.717 1313.56 845.853 1343.29C846.195 1352.33 846.405 1360.52 846.489 1368.32L846.334 1374.17C845.39 1410.25 844.766 1434.08 854.914 1469.54C863.492 1501.43 904.358 1532.5 967.032 1554.78C992.45 1563.82 1019.73 1570.73 1045.93 1574.77C1068.09 1578.33 1082.94 1583.01 1097.3 1587.53C1113.35 1592.59 1128.5 1597.36 1151.95 1599.89C1165.62 1601.3 1178.88 1602.96 1191.72 1604.57C1216.99 1607.72 1240.86 1610.7 1265.13 1611.59C1317.92 1615.18 1369.56 1615.55 1420.66 1581.04C1452.89 1562.23 1497.15 1529.8 1524.78 1482.18C1546.59 1445.08 1552.58 1401.98 1542.1 1357.55C1540.33 1349.33 1538.1 1340.97 1535.48 1332.71C1522.39 1290.66 1496.02 1250.26 1461.21 1218.93C1431.9 1190.77 1399.25 1166.04 1355.39 1138.77C1344.38 1130.88 1333.03 1123.3 1321.71 1116.25C1267.19 1084.1 1222.74 1062.61 1177.57 1046.55C1172.99 1044.92 1168.34 1043.33 1163.75 1041.82C1152.86 1037.37 1142.24 1032.8 1131.98 1028.39C1113.99 1020.65 1096.99 1013.35 1080.25 1007.39Z" fill="#EDE9F6"/>
<path d="M967.109 1539.23C907.362 1517.99 868.557 1489.36 860.647 1460.69C850.149 1424.87 851.287 1402.77 853.173 1366.17L853.303 1363.66C853.41 1356.09 853.424 1348.22 853.35 1339.57C853.098 1311.14 851.394 1280.82 847.83 1241.25C844.657 1200.42 843.109 1157.87 853.176 1123.27C862.965 1089.35 883.28 1060.46 913.565 1037.36C957.935 1002.27 1007.01 992.825 1055.5 1010.06C1059.72 1011.57 1064 1013.29 1068.2 1015.19C1069.15 1015.52 1070.03 1015.83 1070.93 1016.15C1089.29 1022.68 1108.02 1031.68 1127.85 1041.22C1140.38 1047.24 1153.34 1053.48 1167.04 1059.49C1225.27 1080.27 1277.28 1106.79 1320.49 1129.98C1331.84 1136.43 1343.11 1143.27 1353.98 1150.31C1384.18 1167.2 1423.42 1190.77 1459.36 1223.61C1492.85 1252.26 1518.66 1292.05 1530.19 1332.81C1532.49 1340.76 1534.41 1348.83 1535.88 1356.78C1544.61 1398.98 1538.22 1440.31 1517.43 1476.33C1490.73 1523.23 1449.22 1554.82 1419.1 1573.06C1369.5 1607.72 1320.27 1606.32 1265.66 1601.23C1243.48 1599.83 1221.64 1596.58 1198.52 1593.15C1184.1 1591 1169.19 1588.79 1153.63 1586.95C1130.92 1584.18 1116.66 1579.22 1101.56 1573.97C1087.22 1568.99 1072.39 1563.83 1049.08 1560.06C1022.32 1555.91 993.215 1548.51 967.109 1539.23ZM1055.88 1008.98C1006.91 991.569 957.39 1001.07 912.669 1036.45C882.209 1059.67 861.763 1088.75 851.913 1122.89C841.807 1157.64 843.353 1200.3 846.531 1241.23C850.097 1280.78 851.796 1311.08 852.048 1339.48C852.124 1348.12 852.11 1355.98 852 1363.52L851.872 1366.01C849.981 1402.73 848.839 1424.89 859.391 1460.89C867.411 1489.96 906.534 1518.92 966.723 1540.32C992.916 1549.63 1022.12 1557.05 1048.96 1561.22C1072.13 1564.96 1086.9 1570.1 1101.18 1575.06C1116.36 1580.34 1130.69 1585.32 1153.57 1588.11C1169.11 1589.95 1184 1592.16 1198.42 1594.3C1221.57 1597.74 1243.43 1600.99 1265.66 1602.4C1320.52 1607.51 1370 1608.91 1419.93 1574.03C1450.13 1555.75 1491.79 1524.03 1518.59 1476.93C1539.51 1440.7 1545.93 1399.12 1537.17 1356.68C1535.68 1348.7 1533.76 1340.59 1531.45 1332.61C1519.86 1291.63 1493.9 1251.61 1460.23 1222.81C1424.2 1189.88 1384.86 1166.25 1354.63 1149.35C1343.79 1142.32 1332.49 1135.47 1321.1 1129C1277.83 1105.77 1225.75 1079.22 1167.48 1058.42C1153.85 1052.44 1140.9 1046.22 1128.38 1040.19C1107.56 1030.18 1087.95 1020.75 1068.64 1014.13C1064.46 1012.24 1060.15 1010.5 1055.88 1008.98Z" fill="#EDE9F6"/>
<path d="M965.594 1523.31C932.205 1511.44 874.694 1486.23 864.641 1450.76C853.822 1414.73 855.418 1394.5 858.315 1357.77C858.632 1350.28 858.87 1342.73 859.055 1334.57C859.824 1300.22 858.678 1266.12 857.602 1240.25C856.469 1201.57 856.927 1161.12 867.846 1127.49C878.341 1094.93 898.115 1067.24 926.628 1045.18C967.733 1012.21 1012.66 1003.04 1056.55 1018.64C1063.13 1020.98 1069.76 1023.9 1076.28 1027.32C1092.2 1033.92 1108.36 1042.66 1125.46 1051.91C1139.6 1059.57 1154.23 1067.48 1170.16 1075C1218.34 1093.71 1264.63 1115.17 1319.34 1141.65C1330.79 1147.53 1342.01 1153.65 1352.68 1159.82C1385.48 1176.14 1423.58 1196.8 1457.8 1226.39C1490.7 1253.02 1515.38 1291.34 1525.54 1331.51C1527.52 1339.18 1529.14 1346.98 1530.32 1354.71C1537.35 1394.88 1530.55 1434.69 1510.64 1469.86C1484.77 1516.26 1445.86 1547.1 1417.77 1564.79C1369.31 1599.79 1322.22 1597.45 1265.7 1590.75C1245.27 1588.89 1225.18 1585.41 1203.91 1581.72C1188.18 1578.98 1171.91 1576.16 1154.74 1573.88C1137.36 1571.52 1125.5 1567.81 1116.19 1564.5C1112.27 1563.1 1108.57 1561.69 1104.65 1560.19C1100.78 1558.71 1096.76 1557.17 1092.55 1555.67C1083.39 1552.42 1070.46 1548.28 1051.6 1545.21C1023.52 1540.82 992.976 1533.04 965.594 1523.31ZM1056.93 1017.56C1012.56 1001.78 967.189 1011.02 925.725 1044.27C897.453 1066.14 877.004 1094.78 866.593 1127.08C855.626 1160.86 855.166 1201.4 856.301 1240.19C857.381 1266.05 858.524 1300.12 857.753 1334.44C857.571 1342.6 857.335 1350.14 857.022 1357.5C854.107 1394.44 852.507 1414.74 863.383 1450.97C873.592 1486.98 931.562 1512.43 965.208 1524.39C992.676 1534.16 1023.32 1541.96 1051.48 1546.37C1070.22 1549.42 1083.06 1553.52 1092.17 1556.76C1096.36 1558.25 1100.36 1559.78 1104.24 1561.27C1107.99 1562.7 1111.87 1564.19 1115.8 1565.58C1125.19 1568.92 1137.14 1572.65 1154.66 1575.04C1171.8 1577.31 1188.06 1580.13 1203.78 1582.86C1225.07 1586.56 1245.2 1590.06 1265.65 1591.91C1322.46 1598.65 1369.8 1600.99 1418.61 1565.75C1446.77 1548.01 1485.83 1517.05 1511.82 1470.46C1531.84 1435.08 1538.69 1395.03 1531.61 1354.64C1530.42 1346.88 1528.8 1339.05 1526.8 1331.35C1516.59 1290.91 1491.74 1252.36 1458.63 1225.57C1424.31 1195.87 1386.11 1175.16 1353.28 1158.83C1342.62 1152.66 1331.38 1146.54 1319.89 1140.64C1265.14 1114.14 1218.81 1092.66 1170.63 1073.95C1154.79 1066.47 1140.18 1058.57 1126.06 1050.92C1108.92 1041.65 1092.73 1032.89 1076.8 1026.29C1070.28 1022.87 1063.58 1019.92 1056.93 1017.56Z" fill="#EDE9F6"/>
<path d="M963.396 1508.17C909.15 1488.88 875.484 1465.28 868.599 1441.71C857.531 1405.75 859.58 1386.82 863.297 1352.45C863.827 1345.17 864.287 1337.94 864.711 1330.34C866.456 1299.2 866.995 1268.49 867.318 1239.95C868.135 1205.17 870.582 1165.17 882.471 1132.3C893.534 1101.5 913.323 1074.26 939.702 1053.51C978.431 1022.02 1018.55 1013.34 1058.96 1027.71C1067.51 1030.75 1076.11 1034.88 1084.53 1039.98C1097.59 1046.44 1110.82 1054.54 1124.82 1063.12C1140.05 1072.44 1155.8 1082.09 1173.56 1091.08C1201.71 1103.04 1229.44 1115.14 1258.79 1127.95C1278.24 1136.45 1298.35 1145.22 1318.63 1153.97C1330.28 1159.3 1341.46 1164.69 1351.88 1169.99C1387.1 1185.4 1424.16 1203.31 1456.83 1229.9C1489.24 1254.61 1512.83 1291.48 1521.57 1331.05C1523.26 1338.45 1524.57 1345.99 1525.47 1353.49C1530.83 1391.62 1523.6 1429.96 1504.55 1464.35C1479.44 1510.31 1443.1 1540.4 1417.03 1557.55C1369.62 1592.94 1324.59 1589.71 1266.15 1581.3C1247.28 1579.05 1228.69 1575.34 1209.02 1571.41C1192.18 1568.04 1174.76 1564.56 1156.14 1561.82C1144.64 1560.09 1134.54 1557.59 1124.37 1553.98C1118.52 1551.9 1113.29 1549.7 1107.76 1547.38C1102.23 1545.05 1096.5 1542.64 1090.09 1540.36C1078.84 1536.36 1067.47 1533.49 1054.31 1531.34C1024.91 1526.7 991.769 1518.26 963.396 1508.17ZM1059.35 1026.62C1018.44 1012.08 977.882 1020.82 938.792 1052.62C912.264 1073.47 892.358 1100.87 881.23 1131.85C869.286 1164.86 866.836 1204.96 866.013 1239.83C865.693 1268.37 865.155 1299.06 863.413 1330.18C862.987 1337.78 862.526 1345 862.002 1352.26C858.268 1386.75 856.211 1405.76 867.344 1441.92C874.342 1465.89 908.321 1489.81 963.01 1509.25C991.465 1519.37 1024.7 1527.84 1054.19 1532.49C1067.26 1534.64 1078.54 1537.48 1089.7 1541.45C1096.07 1543.71 1101.78 1546.11 1107.3 1548.43C1112.84 1550.76 1118.09 1552.97 1123.99 1555.07C1134.25 1558.72 1144.43 1561.23 1156.04 1562.97C1174.62 1565.71 1192.02 1569.19 1208.84 1572.55C1228.55 1576.49 1247.15 1580.21 1266.07 1582.46C1324.82 1590.92 1370.11 1594.15 1417.89 1558.5C1444.03 1541.3 1480.52 1511.08 1505.72 1464.94C1524.88 1430.35 1532.15 1391.8 1526.76 1353.45C1525.85 1345.93 1524.54 1338.35 1522.86 1330.91C1514.04 1291.06 1490.28 1253.94 1457.65 1229.04C1424.85 1202.36 1387.68 1184.4 1352.41 1168.96C1342.01 1163.67 1330.8 1158.27 1319.13 1152.93C1298.83 1144.17 1278.72 1135.39 1259.28 1126.91C1229.92 1114.09 1202.19 1101.98 1174.07 1090.05C1156.42 1081.1 1140.7 1071.48 1125.49 1062.17C1111.46 1053.57 1098.2 1045.46 1085.13 1038.99C1076.69 1033.87 1068 1029.7 1059.35 1026.62Z" fill="#EDE9F6"/>
</g>
</svg>
