<svg width="32" height="32" viewBox="0 0 32 32" fill="none" xmlns="http://www.w3.org/2000/svg">
<path d="M16.0288 0.119873C7.20978 0.119873 0.0584412 7.39181 0.0584412 16.3629C0.0584412 23.5396 4.63444 29.6283 10.98 31.7761C11.7781 31.9265 12.0711 31.4238 12.0711 30.9947C12.0711 30.6074 12.0563 29.3279 12.0494 27.9706C7.60647 28.9532 6.66895 26.0541 6.66895 26.0541C5.94247 24.1766 4.89573 23.6773 4.89573 23.6773C3.44674 22.6692 5.00495 22.6899 5.00495 22.6899C6.60866 22.8042 7.45309 24.3638 7.45309 24.3638C8.87748 26.847 11.1892 26.1291 12.1005 25.7141C12.2438 24.6645 12.6577 23.9474 13.1144 23.542C9.5672 23.1313 5.83828 21.7385 5.83828 15.5145C5.83828 13.7411 6.46214 12.2921 7.48376 11.1546C7.31794 10.7452 6.7713 9.09339 7.63847 6.856C7.63847 6.856 8.97956 6.41944 12.0315 8.521C13.3054 8.1611 14.6716 7.98061 16.0288 7.97442C17.386 7.98061 18.7533 8.1611 20.0296 8.521C23.0778 6.41944 24.4171 6.856 24.4171 6.856C25.2863 9.09339 24.7394 10.7452 24.5736 11.1546C25.5976 12.2921 26.2173 13.7411 26.2173 15.5145C26.2173 21.7533 22.4812 23.127 18.925 23.5291C19.4978 24.0332 20.0082 25.0217 20.0082 26.5372C20.0082 28.7103 19.9897 30.4595 19.9897 30.9947C19.9897 31.427 20.2772 31.9335 21.0867 31.774C27.4288 29.6237 31.9989 23.5372 31.9989 16.3629C31.9989 7.39181 24.8487 0.119873 16.0288 0.119873" fill="#D4CDEF"/>
</svg>
