<svg width="53" height="60" viewBox="0 0 53 60" fill="none" xmlns="http://www.w3.org/2000/svg">
<rect width="53" height="60" fill="#E5E5E5"/>
<rect width="1920" height="6608" transform="translate(-254 -28)" fill="white"/>
<g clip-path="url(#clip0_0_1)">
<g clip-path="url(#clip1_0_1)">
<path d="M52.0254 14.9355L26.0127 0.0012207L0 14.9355V28.3419L6.01866 24.869V18.3912L26.0127 6.91258L46.0067 18.3912V20.9626L52.0254 17.489V14.9355Z" fill="#23155B"/>
<path d="M46.0067 41.3473L26.0127 52.8258L6.01864 41.3473V35.633L14.7957 30.568L22.0771 34.7709L28.6855 30.9566L21.4033 26.7544L14.7949 22.9395L8.18649 26.7544L6.02083 28.0044L0.00213623 31.478V44.8023L26.0148 59.7366L52.0275 44.8023V31.3959L46.0089 34.8695L46.0067 41.3473Z" fill="#23155B"/>
<path d="M46.0067 24.103L31.4072 32.5315L24.7988 36.3458L31.4072 40.1609L38.0156 36.3458L46.0045 31.7351L52.0232 28.2615V20.6301L46.0067 24.103Z" fill="#8053FF"/>
</g>
</g>
<defs>
<clipPath id="clip0_0_1">
<rect width="1420" height="68" fill="white" transform="translate(-4 -4)"/>
</clipPath>
<clipPath id="clip1_0_1">
<rect width="52.437" height="60" fill="white"/>
</clipPath>
</defs>
</svg>
